<!--Scalable Vector Graphic-->
<svg xmlns="http://www.w3.org/2000/svg" 
     xmlns:xlink="http://www.w3.org/1999/xlink"  
     viewBox="0 0 40.7 39" style="position: absolute; width: 0; height: 0; overflow: hidden">
	<g>
		<g id="search">
			<path style="fill: #000;" d="M3.4,32.9c1.8-1.8,3.7-3.7,5.5-5.5c1.2-1.2,2.4-2.4,3.5-3.5c0.9,0.9,1.7,1.7,2.5,2.5c-0.1,0.1-0.3,0.3-0.4,0.4
				c-2.7,2.7-5.4,5.4-8,8c-0.2,0.2-0.3,0.3-0.4,0.5c-0.1,0-0.2,0-0.3,0C5,34.7,4.2,33.9,3.4,33C3.4,33,3.4,33,3.4,32.9z"/>
			<path d="M35.9,15.3c0.2,6-4.7,12.4-12.4,12.4c-6.9,0-12.4-5.6-12.4-12.4c0-6.9,5.6-12.5,12.5-12.4C31.1,2.9,36.2,9.3,35.9,15.3z
				 M23.6,25.6c5.7,0,10.2-4.5,10.3-10.2c0-5.7-4.6-10.3-10.2-10.3c-5.7,0-10.3,4.6-10.3,10.2C13.3,21,17.9,25.6,23.6,25.6z"/>
		</g>
	</g>
</svg>
