<svg id="Layer_1" data-name="Layer 1" xmlns="http://www.w3.org/2000/svg" viewBox="0 0 46.72 36.88"><defs><style>.cls-1{fill:#fff;}</style></defs><title>Share_email _icon_popup</title><path class="cls-1" d="M43.26,3.69Q37.58,13.08,31.9,22.46q-3.08,5.07-6.18,10.14c-.74,1.21-1,1.26-2.18.49-1.35-.88-2.7-1.78-4-2.72a.93.93,0,0,0-1.25,0q-2.12,1.44-4.29,2.8c-.78.49-1.12.33-1.14-.59q-.09-3.18,0-6.37c0-.29.35-.64.62-.84Q24.23,17.27,35,9.2c.17-.13.33-.27.49-.4l-.06-.11-1.56.8Q21.65,15.91,9.38,22.35a1.46,1.46,0,0,1-1.78-.1C6.09,21.15,4.51,20.15,3,19a5.84,5.84,0,0,1-1-1.28,6,6,0,0,1,1.25-.89Q9.84,14.39,16.44,12,29.54,7.25,42.67,2.55A2.84,2.84,0,0,1,44,2.36C43.72,2.8,43.52,3.26,43.26,3.69Z"/></svg>