<svg id="Layer_1" data-name="Layer 1" xmlns="http://www.w3.org/2000/svg" viewBox="0 0 31 31"><defs><style>.cls-1{fill:#676767;}</style></defs><title>Social Icon_email</title><path class="cls-1" d="M15.65.46A15.07,15.07,0,1,0,30.72,15.53,15.07,15.07,0,0,0,15.65.46Zm7.84,9-4.71,7.78q-1.28,2.1-2.56,4.2c-.31.5-.42.52-.91.2s-1.12-.74-1.66-1.13a.39.39,0,0,0-.52,0q-.88.6-1.78,1.16c-.32.2-.46.14-.47-.24q0-1.32,0-2.64c0-.12.14-.26.26-.35l9-6.7.21-.17,0,0-.65.33L9.44,17.18a.61.61,0,0,1-.74,0c-.62-.46-1.28-.87-1.9-1.33a2.42,2.42,0,0,1-.41-.53,2.47,2.47,0,0,1,.52-.37q2.72-1,5.46-2L23.24,9a1.18,1.18,0,0,1,.53-.08C23.68,9.07,23.59,9.26,23.48,9.44Z"/></svg>