<!--Scalable Vector Graphic-->
<svg xmlns="http://www.w3.org/2000/svg" 
     xmlns:xlink="http://www.w3.org/1999/xlink"  
     width="31px" 
     height="31px" 
     viewBox="0 0 31 31">
	<path fill="#676767" data-name="&lt;Compound Path&gt;" class="cls-1" d="M30.7,15.53A15.07,15.07,0,1,1,15.63.46,15.07,15.07,0,0,1,30.7,15.53ZM11.76,12.91v2.34h1.62V23.4h3V15.25h2.4L19,12.91H16.41V11.08c0-.63.56-.86,1.19-.86a5.47,5.47,0,0,1,1.31.2L19.32,8a10.21,10.21,0,0,0-2.9-.29A2.88,2.88,0,0,0,13.9,8.9a4.21,4.21,0,0,0-.52,2.43v1.58Z"/>
</svg>
