<svg id="Layer_1" data-name="Layer 1" xmlns="http://www.w3.org/2000/svg" viewBox="0 0 480.4 117.78"><defs><style>.cls-1{fill:#fff;}</style></defs><title>Artboard 1</title><path class="cls-1" d="M2.65,1.46V115.13H116.32V1.46ZM26,97.27V65.42H39.34v9.86L72,58.3l-32.66-17V51.64H26V19.33l74.94,39Z"/><path class="cls-1" d="M466.3,59.28h-2.93v7.89h-1.05V59.28h-2.93v-1h6.91Z"/><path class="cls-1" d="M467,58.3h1.56l3,7h0l3-7h1.53v8.87h-1.05V59.73h0l-3.18,7.43h-.64l-3.18-7.43h0v7.43H467Z"/><path class="cls-1" d="M229.88,57.34H208.77V53.58a7,7,0,0,0,3.44-.63,2.7,2.7,0,0,0,1.28-1.86,23.1,23.1,0,0,0,.24-4V35.53a12.34,12.34,0,0,0-1-5.48q-1-2-4.16-2a7.05,7.05,0,0,0-6.38,3.29,13.7,13.7,0,0,0-2.09,7.56V48c0,2.15.31,3.61.94,4.41s2,1.18,4,1.18v3.75H183.55V53.58a12.19,12.19,0,0,0,3.91-.46,2.64,2.64,0,0,0,1.68-1.68,13,13,0,0,0,.41-3.81V34.47q0-2.85-1.1-3.73t-4.89-.87V26.12l15.85-3.51a29.14,29.14,0,0,1,.37,4.41c0,.35,0,.65,0,.92s0,.55,0,.88a27,27,0,0,1,5.33-4.46A12.81,12.81,0,0,1,212,22.61a15.19,15.19,0,0,1,6.3,1.26,9.79,9.79,0,0,1,4.38,3.84,11.52,11.52,0,0,1,1.59,6.19V47.64c0,2.28.3,3.85.92,4.69s2.18,1.26,4.71,1.26Z"/><path class="cls-1" d="M266.45,39.4H241.39c0,.52.1,1.62.22,3.31a19.34,19.34,0,0,0,1.15,5.18,9.71,9.71,0,0,0,3.3,4.46,10,10,0,0,0,6.3,1.81,15.91,15.91,0,0,0,5.22-1.1,11.21,11.21,0,0,0,5.3-4.23L266,51q-4.81,7.7-15.28,7.7a25.74,25.74,0,0,1-8.54-1.34,19.13,19.13,0,0,1-6.55-3.75,16.32,16.32,0,0,1-4.12-5.66,17.32,17.32,0,0,1-1.42-7,18.18,18.18,0,0,1,2.38-9.13,17.46,17.46,0,0,1,6.83-6.68,20.42,20.42,0,0,1,10.15-2.49A17.46,17.46,0,0,1,258.93,25a14.81,14.81,0,0,1,5.69,6.23A18.63,18.63,0,0,1,266.45,39.4Zm-10.11-3.74q0-9.3-7.34-9.29a6.36,6.36,0,0,0-5.44,2.57,12.11,12.11,0,0,0-2.1,6.73Z"/><path class="cls-1" d="M307.06,57.34H284.28V53.58h1.43a11,11,0,0,0,2.77-.28A1.26,1.26,0,0,0,289.53,52q0-.65-1.83-2.61l-4.07-4.32-5.18,4.32c-1.34,1.06-2,2-2,2.77,0,.63.36,1,1.08,1.18a15.84,15.84,0,0,0,3.24.24v3.75H264.92V53.58a12.62,12.62,0,0,0,4.42-1.81,60.77,60.77,0,0,0,6.58-5l5.18-4.44-9.9-10.6a21.75,21.75,0,0,0-3.36-3.18,6.47,6.47,0,0,0-3.08-.81V24h22.37v3.75a14.6,14.6,0,0,0-3,.2,1,1,0,0,0-.88,1.14c0,.43.56,1.21,1.67,2.32l4,4.28,4.32-4,1.33-1.2a4.8,4.8,0,0,0,.71-.78,1.27,1.27,0,0,0,.25-.75c0-.35-.31-.63-.94-.86a9.76,9.76,0,0,0-2.94-.32V24h15v3.75A7.6,7.6,0,0,0,302.9,29a49.53,49.53,0,0,0-6.44,5.09l-4.94,4.32L303.15,51a10.51,10.51,0,0,0,3.91,2.61Z"/><path class="cls-1" d="M334.34,50.08a16.13,16.13,0,0,1-5.14,6.6,11.89,11.89,0,0,1-6.89,2q-4.81,0-7.09-2a8.05,8.05,0,0,1-2.81-4.39,25.55,25.55,0,0,1-.53-5.44V27.71h-6.15V24a14.54,14.54,0,0,0,6.72-1.47,11.72,11.72,0,0,0,4.5-4,13.22,13.22,0,0,0,2.1-5.34h3.34V24h11.53v3.75H322.4V47.14a19.73,19.73,0,0,0,.46,5.12,2.14,2.14,0,0,0,2.3,1.57,4,4,0,0,0,3.22-1.53,21.8,21.8,0,0,0,2.44-3.81Z"/><path class="cls-1" d="M162,107.47H139.86v-3.75H141a7,7,0,0,0,3.44-.65,2.72,2.72,0,0,0,1.32-1.84,18.27,18.27,0,0,0,.24-3.46V85.67a14.67,14.67,0,0,0-.3-3.59,2.38,2.38,0,0,0-1.59-1.55,14,14,0,0,0-4.3-.52V76.26l16.71-3.51v25c0,2.28.28,3.85.86,4.69s2.09,1.26,4.56,1.26Zm-4.61-50.66a5.84,5.84,0,1,1-1.71-4.24A5.77,5.77,0,0,1,157.38,56.82Z"/><path class="cls-1" d="M207.49,107.47H186.38v-3.75a7,7,0,0,0,3.44-.63,2.7,2.7,0,0,0,1.28-1.86,23.1,23.1,0,0,0,.24-4V85.67a12.34,12.34,0,0,0-1-5.48q-1-2-4.16-2a7.05,7.05,0,0,0-6.38,3.29A13.7,13.7,0,0,0,177.7,89v9.12c0,2.15.31,3.61.94,4.41s2,1.18,4,1.18v3.75H161.15v-3.75a12.19,12.19,0,0,0,3.91-.46,2.64,2.64,0,0,0,1.68-1.68,13,13,0,0,0,.41-3.81V84.61q0-2.85-1.1-3.73T161.15,80V76.26L177,72.75a29.14,29.14,0,0,1,.37,4.41c0,.35,0,.65,0,.92s0,.55,0,.88a27,27,0,0,1,5.33-4.46,12.81,12.81,0,0,1,6.93-1.73,15.19,15.19,0,0,1,6.3,1.26,9.79,9.79,0,0,1,4.38,3.84A11.52,11.52,0,0,1,201.86,84V97.77c0,2.28.3,3.85.92,4.69s2.18,1.26,4.71,1.26Z"/><path class="cls-1" d="M245.47,77.85A3.47,3.47,0,0,0,242.61,79a29.85,29.85,0,0,0-2.72,4.65l-12.27,24.74h-5.7l-14-27A10.13,10.13,0,0,0,206,78.5a6.69,6.69,0,0,0-2.85-.65V74.1H223.1v3.75a13.41,13.41,0,0,0-3.15.39,1.25,1.25,0,0,0-1,1.28,6.35,6.35,0,0,0,.82,2.32l8.52,16.55,8.11-16.3a7.14,7.14,0,0,0,.82-2.49,1.35,1.35,0,0,0-1-1.45,11.33,11.33,0,0,0-3.12-.3V74.1h12.34Z"/><path class="cls-1" d="M280,89.54H254.95c0,.52.1,1.62.22,3.31A19.34,19.34,0,0,0,256.31,98a9.71,9.71,0,0,0,3.3,4.46,10,10,0,0,0,6.3,1.81,15.91,15.91,0,0,0,5.22-1.1,11.21,11.21,0,0,0,5.3-4.23l3.18,2.16q-4.81,7.7-15.28,7.7a25.74,25.74,0,0,1-8.54-1.34,19.13,19.13,0,0,1-6.55-3.75,16.32,16.32,0,0,1-4.12-5.66,17.32,17.32,0,0,1-1.42-7,18.18,18.18,0,0,1,2.38-9.13,17.46,17.46,0,0,1,6.83-6.68,20.42,20.42,0,0,1,10.15-2.49,17.46,17.46,0,0,1,9.43,2.41,14.81,14.81,0,0,1,5.69,6.23A18.63,18.63,0,0,1,280,89.54ZM269.9,85.79q0-9.3-7.34-9.29a6.36,6.36,0,0,0-5.44,2.57,12.11,12.11,0,0,0-2.1,6.73Z"/><path class="cls-1" d="M315.6,97.77a9,9,0,0,1-2.1,6,12.81,12.81,0,0,1-5.75,3.77,25.24,25.24,0,0,1-8.41,1.28,34.17,34.17,0,0,1-6.48-.63,21,21,0,0,1-5.71-1.9l-1.59,2.28h-3.17L282,98h3.42a9.86,9.86,0,0,0,4.12,4.92q3.22,2.18,9.33,2.18a26.94,26.94,0,0,0,3.34-.23,8.51,8.51,0,0,0,3.44-1.24,3.44,3.44,0,0,0,1.65-3.14,2.78,2.78,0,0,0-1.7-2.67,37.69,37.69,0,0,0-6.34-2q-5.63-1.42-9.21-2.71A16.76,16.76,0,0,1,284,89.38a8.25,8.25,0,0,1-2.48-6.2,8.63,8.63,0,0,1,4.42-7.62q4.43-2.82,11.6-2.81a28.41,28.41,0,0,1,7.17.73,28.75,28.75,0,0,1,4.52,1.59l1-2.07h3.26v9.45H310.1a6.18,6.18,0,0,0-2-3.06,11,11,0,0,0-4.22-2.14,22.39,22.39,0,0,0-6.09-.75,27,27,0,0,0-5.69.61c-1.89.41-2.83,1.37-2.83,2.9a2.22,2.22,0,0,0,.55,1.54,5,5,0,0,0,1.89,1.14,44.39,44.39,0,0,0,4.73,1.39l4,1a43.15,43.15,0,0,1,10.9,4.12Q315.6,91.66,315.6,97.77Z"/><path class="cls-1" d="M343.41,100.22a16.13,16.13,0,0,1-5.14,6.6,11.89,11.89,0,0,1-6.89,2q-4.81,0-7.09-2a8.05,8.05,0,0,1-2.81-4.39A25.55,25.55,0,0,1,321,97V77.85H314.8V74.1a14.54,14.54,0,0,0,6.72-1.47,11.72,11.72,0,0,0,4.5-4,13.22,13.22,0,0,0,2.1-5.34h3.34V74.1H343v3.75H331.48V97.28a19.73,19.73,0,0,0,.46,5.12,2.14,2.14,0,0,0,2.3,1.57,4,4,0,0,0,3.22-1.53,21.8,21.8,0,0,0,2.44-3.81Z"/><path class="cls-1" d="M383.16,90.68a17.24,17.24,0,0,1-2.69,9.65,17.45,17.45,0,0,1-7.27,6.3,23.11,23.11,0,0,1-10,2.18,24,24,0,0,1-9.72-2,17.78,17.78,0,0,1-7.5-6.07,16.72,16.72,0,0,1-2.91-10q0-8.84,6-13.42a23,23,0,0,1,14.35-4.59,22,22,0,0,1,10.68,2.45,16.74,16.74,0,0,1,6.79,6.56A18,18,0,0,1,383.16,90.68Zm-11.25-.25q0-6.92-1.83-10.43T363,76.5A7.19,7.19,0,0,0,355,82.76a37.13,37.13,0,0,0-.76,8.29,25.8,25.8,0,0,0,1.68,10.15q1.67,3.88,7.29,3.87a7.24,7.24,0,0,0,5.65-2.14,10.36,10.36,0,0,0,2.48-5.3A42.21,42.21,0,0,0,371.91,90.44Z"/><path class="cls-1" d="M418.79,79.19a4.87,4.87,0,0,1-1.45,3.73,4.78,4.78,0,0,1-3.4,1.36A5.07,5.07,0,0,1,409.87,82a11.18,11.18,0,0,0-1.35-1.47,2.28,2.28,0,0,0-1.51-.45q-3.18,0-5,3.44a15.48,15.48,0,0,0-1.77,7.15v7.09q0,3.43.87,4.69c.59.84,2.13,1.26,4.63,1.26H408v3.75h-25.3v-3.75h2.11q3.43,0,4.2-1.3a9.92,9.92,0,0,0,.77-4.65V85.87a10,10,0,0,0-.55-3.91,2.87,2.87,0,0,0-2-1.56,19,19,0,0,0-4.56-.39V76.26l15.89-3.51a54.91,54.91,0,0,1,1.14,8.84,17.29,17.29,0,0,1,3-4.4A15.78,15.78,0,0,1,406.83,74a10,10,0,0,1,4.71-1.22,7.33,7.33,0,0,1,5.3,1.88A6.06,6.06,0,0,1,418.79,79.19Z"/><path class="cls-1" d="M452.76,97.77a9,9,0,0,1-2.1,6,12.81,12.81,0,0,1-5.75,3.77,25.24,25.24,0,0,1-8.41,1.28,34.17,34.17,0,0,1-6.48-.63,21,21,0,0,1-5.71-1.9l-1.59,2.28h-3.17L419.13,98h3.42a9.86,9.86,0,0,0,4.12,4.92q3.22,2.18,9.33,2.18a26.94,26.94,0,0,0,3.34-.23,8.51,8.51,0,0,0,3.44-1.24,3.44,3.44,0,0,0,1.65-3.14,2.78,2.78,0,0,0-1.7-2.67,37.69,37.69,0,0,0-6.34-2q-5.63-1.42-9.21-2.71a16.76,16.76,0,0,1-6.07-3.69,8.25,8.25,0,0,1-2.48-6.2,8.63,8.63,0,0,1,4.42-7.62q4.43-2.82,11.6-2.81a28.41,28.41,0,0,1,7.17.73,28.75,28.75,0,0,1,4.52,1.59l1-2.07h3.26v9.45h-3.34a6.18,6.18,0,0,0-2-3.06A11,11,0,0,0,441,77.25a22.39,22.39,0,0,0-6.09-.75,27,27,0,0,0-5.69.61c-1.89.41-2.83,1.37-2.83,2.9a2.22,2.22,0,0,0,.55,1.54,5,5,0,0,0,1.89,1.14,44.39,44.39,0,0,0,4.73,1.39l4,1a43.15,43.15,0,0,1,10.9,4.12Q452.76,91.66,452.76,97.77Z"/></svg>