<?xml version="1.0" encoding="utf-8"?>
<!-- Generator: Adobe Illustrator 21.0.2, SVG Export Plug-In . SVG Version: 6.00 Build 0)  -->
<svg version="1.1" id="Layer_1" xmlns="http://www.w3.org/2000/svg" xmlns:xlink="http://www.w3.org/1999/xlink" x="0px" y="0px"
	 viewBox="0 0 389.5 90.4" style="enable-background:new 0 0 389.5 90.4;" xml:space="preserve">
<style type="text/css">
	.st0{fill:#FFFFFF;}
	.st1{opacity:0.5;}
	.st2{fill:#676767;}
	.st3{fill:#043B58;}
</style>
<g>
	<path class="st0" d="M3.1,1v21.9c0.5-0.2,1-0.3,1.5-0.4c4.1-0.7,8.2,2.3,8.8,6.4c0.1,0.9,0.5,1.3,1.4,1.5c3.2,0.7,6.3,1.5,9.5,2.3
		c0.6,0.2,1,0.1,1.4-0.5c2.7-4.2,8.4-4.9,12-1.4c0.6,0.5,0.9,0.6,1.6,0.2c4-2.2,8-4.3,11.8-6.4c0.1-1.4,0-2.7,0.2-3.9
		c0.8-3.6,3.8-6,7.4-6.1c3.4-0.1,6.6,2.2,7.6,5.5c1,3.3-0.2,7-3.1,8.9c-3,2-6.9,1.8-9.5-0.6c-0.7-0.6-1.2-0.7-2-0.2
		c-3.6,2-7.3,4-11,5.9c-0.6,0.3-0.9,0.6-0.8,1.4c0.6,4.2-2.5,8.1-6.7,8.7c-4.2,0.6-8.2-2.3-8.8-6.5c-0.1-1-0.5-1.5-1.6-1.7
		c-3.4-0.7-6.8-1.6-10.2-2.4c-0.2,0.3-0.4,0.7-0.6,1c-2,3.2-5.9,4.3-9.3,3.1v13.8c3.5,0,6.9,0,10.4,0c1.5,0,2.1,0.6,2.1,2
		c0,6.1,0,18.9,0,33.5h7c0-2.3,0-4.1,0-5c0,0,0,0,0,0c0-7.5,0-15.1,0-22.6c0-1.7,0.5-2.2,2.2-2.2c5.1,0,10.2,0,15.3,0
		c1.6,0,2.2,0.5,2.2,2.1c0,4.9,0,15.3,0,27.7h6.9c0-5.7,0-10.1,0-12.1c0,0,0,0,0,0c0-9.8,0-19.5,0-29.3c0-1.9,0.6-2.5,2.5-2.5
		c4.9,0,9.9,0,14.8,0c1.9,0,2.5,0.7,2.5,2.5c0,7.8,0,23.7,0,41.4H89V1H3.1z"/>
	<g>
		<g>
			<path class="st0" d="M138.9,61.5c-0.6-0.8-1.4-1.3-2.4-1.7c-1-0.4-2-0.5-2.9-0.5c-0.5,0-1.1,0.1-1.7,0.2
				c-0.6,0.1-1.1,0.3-1.6,0.6c-0.5,0.3-0.9,0.6-1.2,1.1c-0.3,0.4-0.5,1-0.5,1.6c0,1,0.4,1.8,1.1,2.3s1.7,1,2.9,1.4
				c1.2,0.4,2.4,0.8,3.7,1.1s2.6,0.9,3.7,1.6c1.2,0.7,2.1,1.6,2.9,2.8c0.8,1.2,1.1,2.7,1.1,4.7c0,1.9-0.3,3.5-1,4.9
				c-0.7,1.4-1.6,2.5-2.8,3.5c-1.2,0.9-2.6,1.6-4.1,2c-1.6,0.4-3.2,0.7-5,0.7c-2.2,0-4.2-0.3-6.1-1c-1.9-0.7-3.6-1.7-5.2-3.2
				l5.3-5.8c0.8,1,1.7,1.8,2.9,2.3c1.2,0.6,2.3,0.8,3.6,0.8c0.6,0,1.2-0.1,1.8-0.2c0.6-0.1,1.2-0.4,1.7-0.6c0.5-0.3,0.9-0.6,1.2-1.1
				c0.3-0.4,0.5-1,0.5-1.6c0-1-0.4-1.8-1.2-2.4c-0.8-0.6-1.7-1.1-2.9-1.5c-1.2-0.4-2.4-0.8-3.8-1.2c-1.4-0.4-2.6-1-3.8-1.7
				c-1.2-0.7-2.1-1.6-2.9-2.8c-0.8-1.1-1.2-2.6-1.2-4.5c0-1.8,0.4-3.4,1.1-4.7c0.7-1.4,1.7-2.5,2.8-3.4c1.2-0.9,2.6-1.6,4.1-2.1
				c1.5-0.5,3.1-0.7,4.8-0.7c1.9,0,3.7,0.3,5.5,0.8c1.8,0.5,3.4,1.4,4.8,2.7L138.9,61.5z"/>
			<path class="st0" d="M149.5,53.3h11.2l7.7,21.9h0.1l7.8-21.9h11.1v33.6H180V61.1h-0.1l-8.8,25.7h-5.6L157,61.1h-0.1v25.7h-7.4
				V53.3z"/>
			<path class="st0" d="M205.3,53.3h6.1L226,86.9h-8.3l-2.9-7.1h-13l-2.8,7.1h-8.2L205.3,53.3z M208.2,63.1l-4.1,10.4h8.2
				L208.2,63.1z"/>
			<path class="st0" d="M229.7,53.3h7.4v26.7h13.7v6.8h-21.1V53.3z"/>
			<path class="st0" d="M255.1,53.3h7.4v26.7h13.7v6.8h-21.1V53.3z"/>
			<path class="st0" d="M316.3,62c-0.7-0.9-1.6-1.6-2.7-2c-1.1-0.5-2.3-0.7-3.7-0.7s-2.7,0.3-3.9,0.8c-1.2,0.5-2.2,1.3-3.1,2.3
				c-0.9,1-1.5,2.1-2,3.4c-0.5,1.3-0.7,2.8-0.7,4.3c0,1.6,0.2,3,0.7,4.3c0.5,1.3,1.2,2.4,2,3.4c0.9,1,1.9,1.7,3,2.3
				c1.2,0.5,2.4,0.8,3.7,0.8c1.5,0,2.9-0.3,4-0.9c1.2-0.6,2.1-1.5,2.9-2.7l6.2,4.6c-1.4,2-3.2,3.5-5.4,4.4c-2.2,0.9-4.4,1.4-6.7,1.4
				c-2.6,0-5-0.4-7.3-1.2c-2.2-0.8-4.1-2-5.7-3.5c-1.6-1.5-2.9-3.4-3.8-5.6c-0.9-2.2-1.4-4.6-1.4-7.3c0-2.7,0.5-5.1,1.4-7.3
				c0.9-2.2,2.2-4,3.8-5.6s3.5-2.7,5.7-3.5c2.2-0.8,4.6-1.2,7.3-1.2c0.9,0,1.9,0.1,3,0.3c1,0.2,2,0.5,3,0.8c1,0.4,2,0.9,2.9,1.5
				c0.9,0.6,1.7,1.4,2.5,2.3L316.3,62z"/>
			<path class="st0" d="M337.9,53.3h6.1l14.6,33.6h-8.3l-2.9-7.1h-13l-2.8,7.1h-8.2L337.9,53.3z M340.7,63.1l-4.1,10.4h8.2
				L340.7,63.1z"/>
			<path class="st0" d="M361.9,53.3h12.5c1.7,0,3.4,0.2,4.9,0.5c1.5,0.3,2.9,0.9,4.1,1.6c1.2,0.8,2.1,1.8,2.8,3.1c0.7,1.3,1,3,1,5
				c0,2-0.3,3.6-0.9,4.9c-0.6,1.3-1.5,2.4-2.6,3.2c-1.1,0.8-2.4,1.4-3.9,1.7c-1.5,0.3-3.2,0.5-4.9,0.5h-5.4v13.1h-7.4V53.3z
				 M369.3,67.5h4.9c0.7,0,1.3-0.1,1.9-0.2s1.2-0.3,1.7-0.6c0.5-0.3,0.9-0.7,1.2-1.2c0.3-0.5,0.5-1.2,0.5-2c0-0.9-0.2-1.5-0.6-2.1
				c-0.4-0.5-0.9-0.9-1.5-1.2c-0.6-0.3-1.3-0.5-2.1-0.5c-0.8-0.1-1.5-0.1-2.2-0.1h-3.8V67.5z"/>
		</g>
	</g>
	<g class="st1">
		<path class="st0" d="M162.4,41.6h-19.1v-3.4c1.4,0,2.5-0.2,3.1-0.6c0.6-0.4,1-0.9,1.2-1.7c0.1-0.7,0.2-2,0.2-3.6V21.9
			c0-2.1-0.3-3.7-0.9-5c-0.6-1.2-1.9-1.8-3.8-1.8c-2.6,0-4.5,1-5.8,3c-1.3,2-1.9,4.3-1.9,6.8v8.2c0,1.9,0.3,3.3,0.8,4
			c0.6,0.7,1.8,1.1,3.6,1.1v3.4h-19.4v-3.4c1.6,0,2.8-0.1,3.5-0.4c0.8-0.3,1.3-0.8,1.5-1.5c0.2-0.7,0.4-1.9,0.4-3.4V21
			c0-1.7-0.3-2.8-1-3.4c-0.7-0.5-2.1-0.8-4.4-0.8v-3.4l14.3-3.2c0.2,1.4,0.3,2.8,0.3,4c0,0.3,0,0.6,0,0.8c0,0.2,0,0.5,0,0.8
			c1.5-1.6,3.2-3,4.8-4c1.7-1,3.8-1.6,6.3-1.6c2.1,0,4,0.4,5.7,1.1c1.7,0.8,3,1.9,4,3.5c1,1.5,1.4,3.4,1.4,5.6v12.4
			c0,2.1,0.3,3.5,0.8,4.2c0.6,0.8,2,1.1,4.3,1.1V41.6z"/>
		<path class="st0" d="M195.4,25.4h-22.7c0,0.5,0.1,1.5,0.2,3c0.1,1.5,0.5,3.1,1,4.7c0.6,1.6,1.6,2.9,3,4c1.4,1.1,3.3,1.6,5.7,1.6
			c1.3,0,2.9-0.3,4.7-1c1.8-0.7,3.4-1.9,4.8-3.8l2.9,2c-2.9,4.6-7.5,7-13.8,7c-2.8,0-5.4-0.4-7.7-1.2c-2.3-0.8-4.3-1.9-5.9-3.4
			c-1.6-1.4-2.9-3.2-3.7-5.1c-0.9-2-1.3-4.1-1.3-6.3c0-3,0.7-5.7,2.2-8.3c1.4-2.5,3.5-4.5,6.2-6c2.7-1.5,5.7-2.2,9.2-2.2
			c3.4,0,6.2,0.7,8.5,2.2c2.3,1.4,4,3.3,5.1,5.6S195.4,22.8,195.4,25.4z M186.3,22c0-5.6-2.2-8.4-6.6-8.4c-2.1,0-3.8,0.8-4.9,2.3
			c-1.1,1.5-1.8,3.6-1.9,6.1H186.3z"/>
		<path class="st0" d="M232.1,41.6h-20.6v-3.4h1.3c1,0,1.9-0.1,2.5-0.3c0.6-0.2,1-0.6,1-1.2c0-0.4-0.6-1.2-1.7-2.4l-3.7-3.9
			l-4.7,3.9c-1.2,1-1.8,1.8-1.8,2.5c0,0.6,0.3,0.9,1,1.1c0.7,0.1,1.6,0.2,2.9,0.2v3.4H194v-3.4c1.2-0.2,2.6-0.8,4-1.6
			c1.4-0.9,3.4-2.4,6-4.5l4.7-4l-9-9.6c-1.4-1.5-2.4-2.5-3-2.9c-0.7-0.4-1.6-0.7-2.8-0.7v-3.4h20.2v3.4c-1.3,0-2.1,0.1-2.7,0.2
			c-0.5,0.1-0.8,0.5-0.8,1c0,0.4,0.5,1.1,1.5,2.1l3.6,3.9l3.9-3.6c0.5-0.5,0.9-0.8,1.2-1.1c0.3-0.3,0.5-0.5,0.6-0.7
			c0.1-0.2,0.2-0.4,0.2-0.7c0-0.3-0.3-0.6-0.8-0.8c-0.6-0.2-1.4-0.3-2.7-0.3v-3.4h13.6v3.4c-1,0-2.2,0.4-3.5,1.1
			c-1.3,0.8-3.2,2.3-5.8,4.6l-4.5,3.9l10.5,11.4c0.9,1,2.1,1.8,3.5,2.4V41.6z"/>
		<path class="st0" d="M256.8,35.1c-1.3,2.8-2.9,4.8-4.6,6c-1.8,1.2-3.8,1.8-6.2,1.8c-2.9,0-5-0.6-6.4-1.8c-1.4-1.2-2.2-2.5-2.5-4
			s-0.5-3.1-0.5-4.9V14.9h-5.6v-3.4c2.3,0,4.4-0.4,6.1-1.3c1.7-0.9,3.1-2.1,4.1-3.6c1-1.5,1.6-3.1,1.9-4.8h3v9.7h10.4v3.4H246v17.6
			c0,2.1,0.1,3.7,0.4,4.6c0.3,0.9,1,1.4,2.1,1.4c1.2,0,2.1-0.5,2.9-1.4c0.8-0.9,1.5-2.1,2.2-3.4L256.8,35.1z"/>
	</g>
</g>
</svg>
