<?xml version="1.0" encoding="utf-8"?>
<!-- Generator: Adobe Illustrator 21.0.2, SVG Export Plug-In . SVG Version: 6.00 Build 0)  -->
<svg version="1.1" id="Layer_1" xmlns="http://www.w3.org/2000/svg" xmlns:xlink="http://www.w3.org/1999/xlink" x="0px" y="0px"
	 viewBox="0 0 421 90.4" style="enable-background:new 0 0 421 90.4;" xml:space="preserve">
<style type="text/css">
	.st0{fill:#FFFFFF;}
	.st1{opacity:0.5;}
	.st2{fill:#676767;}
	.st3{fill:#043B58;}
</style>
<g>
	<g>
		<g>
			<path class="st0" d="M128.9,59.7h-9.6v-6.5h26.5v6.5h-9.6v27h-7.4V59.7z"/>
			<path class="st0" d="M149.8,53.2h22.7V60h-15.4v6.2h14.5v6.8h-14.5v6.8h16.2v6.8h-23.6V53.2z"/>
			<path class="st0" d="M201.2,61.9c-0.7-0.9-1.6-1.6-2.7-2c-1.1-0.5-2.3-0.7-3.7-0.7s-2.7,0.3-3.9,0.8c-1.2,0.5-2.2,1.3-3.1,2.2
				c-0.9,1-1.5,2.1-2,3.4c-0.5,1.3-0.7,2.8-0.7,4.3c0,1.6,0.2,3,0.7,4.3c0.5,1.3,1.2,2.4,2,3.4c0.9,1,1.9,1.7,3,2.2
				c1.1,0.5,2.4,0.8,3.7,0.8c1.5,0,2.9-0.3,4-0.9c1.2-0.6,2.1-1.5,2.9-2.6l6.1,4.6c-1.4,2-3.2,3.5-5.4,4.4c-2.2,0.9-4.4,1.4-6.7,1.4
				c-2.6,0-5-0.4-7.2-1.2c-2.2-0.8-4.1-2-5.7-3.5c-1.6-1.5-2.9-3.4-3.8-5.6c-0.9-2.2-1.3-4.6-1.3-7.3c0-2.7,0.4-5.1,1.3-7.3
				c0.9-2.2,2.2-4,3.8-5.6c1.6-1.5,3.5-2.7,5.7-3.5c2.2-0.8,4.6-1.2,7.2-1.2c0.9,0,1.9,0.1,3,0.3c1,0.2,2,0.4,3,0.8
				c1,0.4,1.9,0.9,2.9,1.5c0.9,0.6,1.7,1.4,2.5,2.3L201.2,61.9z"/>
			<path class="st0" d="M211.7,53.2h7.4v12.5h14.3V53.2h7.4v33.5h-7.4V72.2h-14.3v14.5h-7.4V53.2z"/>
			<path class="st0" d="M278.1,61.4c-0.6-0.8-1.4-1.3-2.4-1.7c-1-0.4-2-0.5-2.9-0.5c-0.5,0-1.1,0.1-1.7,0.2
				c-0.6,0.1-1.1,0.3-1.6,0.6c-0.5,0.3-0.9,0.6-1.2,1.1c-0.3,0.4-0.5,1-0.5,1.6c0,1,0.4,1.8,1.1,2.3c0.8,0.5,1.7,1,2.9,1.4
				c1.1,0.4,2.4,0.8,3.7,1.1c1.3,0.4,2.6,0.9,3.7,1.6c1.1,0.7,2.1,1.6,2.9,2.8c0.8,1.2,1.1,2.7,1.1,4.7c0,1.9-0.3,3.5-1,4.9
				c-0.7,1.4-1.6,2.5-2.8,3.5c-1.2,0.9-2.6,1.6-4.1,2c-1.6,0.4-3.2,0.7-4.9,0.7c-2.2,0-4.2-0.3-6.1-1c-1.9-0.7-3.6-1.7-5.2-3.2
				l5.2-5.8c0.8,1,1.7,1.8,2.9,2.3c1.2,0.6,2.3,0.8,3.6,0.8c0.6,0,1.2-0.1,1.8-0.2c0.6-0.1,1.2-0.4,1.7-0.6c0.5-0.3,0.9-0.6,1.2-1.1
				c0.3-0.4,0.4-1,0.4-1.6c0-1-0.4-1.8-1.2-2.4c-0.8-0.6-1.7-1.1-2.9-1.5c-1.2-0.4-2.4-0.8-3.8-1.2c-1.4-0.4-2.6-1-3.8-1.7
				c-1.2-0.7-2.1-1.6-2.9-2.7c-0.8-1.1-1.2-2.6-1.2-4.5c0-1.8,0.4-3.4,1.1-4.7c0.7-1.4,1.7-2.5,2.8-3.4s2.5-1.6,4.1-2.1
				c1.5-0.5,3.1-0.7,4.8-0.7c1.9,0,3.7,0.3,5.5,0.8c1.8,0.5,3.4,1.4,4.8,2.7L278.1,61.4z"/>
			<path class="st0" d="M295.2,59.7h-9.6v-6.5h26.5v6.5h-9.6v27h-7.4V59.7z"/>
			<path class="st0" d="M314.1,69.9c0-2.7,0.4-5.1,1.3-7.3c0.9-2.2,2.2-4,3.8-5.6c1.6-1.5,3.5-2.7,5.7-3.5c2.2-0.8,4.6-1.2,7.2-1.2
				c2.6,0,5,0.4,7.2,1.2c2.2,0.8,4.1,2,5.7,3.5c1.6,1.5,2.9,3.4,3.8,5.6c0.9,2.2,1.3,4.6,1.3,7.3c0,2.7-0.4,5.1-1.3,7.3
				c-0.9,2.2-2.2,4-3.8,5.6c-1.6,1.5-3.5,2.7-5.7,3.5c-2.2,0.8-4.6,1.2-7.2,1.2c-2.6,0-5-0.4-7.2-1.2c-2.2-0.8-4.1-2-5.7-3.5
				c-1.6-1.5-2.9-3.4-3.8-5.6C314.5,75.1,314.1,72.6,314.1,69.9z M321.7,69.9c0,1.6,0.2,3,0.7,4.3c0.5,1.3,1.2,2.4,2.1,3.4
				s2,1.7,3.3,2.2c1.3,0.5,2.7,0.8,4.3,0.8c1.6,0,3-0.3,4.3-0.8c1.3-0.5,2.4-1.3,3.3-2.2c0.9-1,1.6-2.1,2.1-3.4
				c0.5-1.3,0.7-2.8,0.7-4.3c0-1.5-0.2-3-0.7-4.3c-0.5-1.3-1.2-2.5-2.1-3.4c-0.9-1-2-1.7-3.3-2.2c-1.3-0.5-2.7-0.8-4.3-0.8
				c-1.6,0-3,0.3-4.3,0.8c-1.3,0.5-2.4,1.3-3.3,2.2c-0.9,1-1.6,2.1-2.1,3.4C322,67,321.7,68.4,321.7,69.9z"/>
			<path class="st0" d="M377.1,61.9c-0.7-0.9-1.6-1.6-2.7-2s-2.3-0.7-3.7-0.7s-2.7,0.3-3.9,0.8c-1.2,0.5-2.2,1.3-3.1,2.2
				c-0.9,1-1.5,2.1-2,3.4c-0.5,1.3-0.7,2.8-0.7,4.3c0,1.6,0.2,3,0.7,4.3c0.5,1.3,1.2,2.4,2,3.4c0.9,1,1.9,1.7,3,2.2
				c1.1,0.5,2.4,0.8,3.7,0.8c1.5,0,2.9-0.3,4-0.9c1.2-0.6,2.1-1.5,2.9-2.6l6.1,4.6c-1.4,2-3.2,3.5-5.4,4.4c-2.2,0.9-4.4,1.4-6.7,1.4
				c-2.6,0-5-0.4-7.2-1.2c-2.2-0.8-4.1-2-5.7-3.5c-1.6-1.5-2.9-3.4-3.8-5.6c-0.9-2.2-1.3-4.6-1.3-7.3c0-2.7,0.4-5.1,1.3-7.3
				c0.9-2.2,2.2-4,3.8-5.6c1.6-1.5,3.5-2.7,5.7-3.5c2.2-0.8,4.6-1.2,7.2-1.2c0.9,0,1.9,0.1,3,0.3c1,0.2,2,0.4,3,0.8
				c1,0.4,1.9,0.9,2.9,1.5c0.9,0.6,1.7,1.4,2.5,2.3L377.1,61.9z"/>
			<path class="st0" d="M387.9,53.2h7.4v13.9l13-13.9h9.6L403,68.8l16.2,17.9h-10.3l-13.6-15.9v15.9h-7.4V53.2z"/>
		</g>
	</g>
	<g>
		<path class="st0" d="M26.2,67.9c-2.8,0-5.2-2.3-5.2-5.1c0-2.8,2.3-5.2,5.2-5.2s5.2,2.3,5.2,5.2C31.4,65.6,29.1,67.9,26.2,67.9z
			 M62.3,31.9c-2.9,0-5.2-2.3-5.2-5.1s2.3-5.1,5.2-5.1c2.8,0,5.2,2.3,5.2,5.1S65.1,31.9,62.3,31.9z"/>
		<ellipse class="st0" cx="26.2" cy="26.7" rx="5.2" ry="5.1"/>
		<ellipse class="st0" cx="62.2" cy="62.7" rx="5.2" ry="5.1"/>
		<path class="st0" d="M88.9,84.4V1.7H56L36.6,21.2c0.9,1.6,1.4,3.5,1.4,5.5c0,6.5-5.3,11.7-11.7,11.7c-6.5,0-11.7-5.2-11.7-11.7
			S19.7,15,26.2,15c2,0,3.8,0.5,5.4,1.3L46.3,1.7H2.8v86h79.7L67.8,73c-1.7,0.9-3.5,1.4-5.5,1.4c-6.5,0-11.7-5.2-11.7-11.7
			c0-6.5,5.3-11.7,11.7-11.7C68.7,51,74,56.3,74,62.7c0,1.9-0.5,3.8-1.3,5.4L88.9,84.4z M62.3,38.4c-2,0-3.9-0.5-5.5-1.4L36.6,57.2
			c0.9,1.6,1.4,3.5,1.4,5.5c0,6.5-5.3,11.7-11.7,11.7c-6.5,0-11.7-5.2-11.7-11.7c0-6.5,5.3-11.7,11.7-11.7c2,0,3.8,0.5,5.4,1.3
			l20.2-20.2c-0.8-1.6-1.3-3.4-1.3-5.4c0-6.5,5.3-11.7,11.7-11.7S74,20.3,74,26.7S68.8,38.4,62.3,38.4z"/>
	</g>
	<g class="st1">
		<path class="st0" d="M162.3,41.9h-19v-3.4c1.4,0,2.5-0.2,3.1-0.6c0.6-0.4,1-0.9,1.2-1.7c0.1-0.7,0.2-1.9,0.2-3.6V22.2
			c0-2.1-0.3-3.7-0.9-4.9c-0.6-1.2-1.9-1.8-3.7-1.8c-2.6,0-4.5,1-5.8,3c-1.3,2-1.9,4.2-1.9,6.8v8.2c0,1.9,0.3,3.3,0.8,4
			c0.6,0.7,1.8,1.1,3.6,1.1v3.4h-19.4v-3.4c1.6,0,2.8-0.1,3.5-0.4c0.8-0.3,1.3-0.8,1.5-1.5c0.2-0.7,0.4-1.9,0.4-3.4V21.3
			c0-1.7-0.3-2.8-1-3.4c-0.7-0.5-2.1-0.8-4.4-0.8v-3.4l14.3-3.2c0.2,1.4,0.3,2.7,0.3,4c0,0.3,0,0.6,0,0.8c0,0.2,0,0.5,0,0.8
			c1.5-1.6,3.1-3,4.8-4c1.7-1,3.7-1.6,6.2-1.6c2.1,0,4,0.4,5.7,1.1c1.7,0.8,3,1.9,3.9,3.5c1,1.5,1.4,3.4,1.4,5.6v12.4
			c0,2.1,0.3,3.5,0.8,4.2c0.5,0.8,2,1.1,4.2,1.1V41.9z"/>
		<path class="st0" d="M195.2,25.7h-22.6c0,0.5,0.1,1.5,0.2,3c0.1,1.5,0.5,3.1,1,4.7c0.6,1.6,1.6,2.9,3,4c1.4,1.1,3.3,1.6,5.7,1.6
			c1.3,0,2.9-0.3,4.7-1c1.8-0.7,3.4-1.9,4.8-3.8l2.9,1.9c-2.9,4.6-7.5,6.9-13.8,6.9c-2.8,0-5.4-0.4-7.7-1.2
			c-2.3-0.8-4.3-1.9-5.9-3.4c-1.6-1.4-2.8-3.1-3.7-5.1c-0.9-2-1.3-4.1-1.3-6.3c0-3,0.7-5.7,2.1-8.2c1.4-2.5,3.5-4.5,6.2-6
			c2.7-1.5,5.7-2.2,9.1-2.2c3.4,0,6.2,0.7,8.5,2.2c2.3,1.4,4,3.3,5.1,5.6S195.2,23.1,195.2,25.7z M186.1,22.3c0-5.6-2.2-8.4-6.6-8.4
			c-2.1,0-3.8,0.8-4.9,2.3c-1.1,1.5-1.8,3.6-1.9,6.1H186.1z"/>
		<path class="st0" d="M231.9,41.9h-20.5v-3.4h1.3c1,0,1.9-0.1,2.5-0.3c0.6-0.2,1-0.6,1-1.2c0-0.4-0.5-1.2-1.7-2.3l-3.7-3.9
			l-4.7,3.9c-1.2,1-1.8,1.8-1.8,2.5c0,0.6,0.3,0.9,1,1.1c0.6,0.1,1.6,0.2,2.9,0.2v3.4h-14.3v-3.4c1.2-0.2,2.6-0.8,4-1.6
			c1.4-0.9,3.4-2.4,5.9-4.5l4.7-4l-8.9-9.6c-1.4-1.5-2.4-2.4-3-2.9c-0.6-0.4-1.6-0.7-2.8-0.7v-3.4h20.2v3.4c-1.3,0-2.1,0.1-2.7,0.2
			c-0.5,0.1-0.8,0.5-0.8,1c0,0.4,0.5,1.1,1.5,2.1l3.6,3.9l3.9-3.6c0.5-0.5,0.9-0.8,1.2-1.1c0.3-0.3,0.5-0.5,0.6-0.7
			c0.1-0.2,0.2-0.4,0.2-0.7c0-0.3-0.3-0.6-0.8-0.8c-0.6-0.2-1.4-0.3-2.6-0.3v-3.4h13.6v3.4c-1,0-2.2,0.4-3.5,1.1
			c-1.3,0.8-3.2,2.3-5.8,4.6l-4.4,3.9l10.5,11.4c0.9,1,2.1,1.8,3.5,2.3V41.9z"/>
		<path class="st0" d="M256.4,35.3c-1.3,2.8-2.9,4.7-4.6,5.9c-1.8,1.2-3.8,1.8-6.2,1.8c-2.9,0-5-0.6-6.4-1.8c-1.4-1.2-2.2-2.5-2.5-4
			c-0.3-1.5-0.5-3.1-0.5-4.9V15.2h-5.5v-3.4c2.3,0,4.3-0.4,6.1-1.3c1.7-0.9,3.1-2.1,4.1-3.6c1-1.5,1.6-3.1,1.9-4.8h3v9.7h10.4v3.4
			h-10.4v17.5c0,2.1,0.1,3.7,0.4,4.6s1,1.4,2.1,1.4c1.2,0,2.1-0.5,2.9-1.4c0.8-0.9,1.5-2.1,2.2-3.4L256.4,35.3z"/>
	</g>
</g>
</svg>
