<?xml version="1.0" encoding="utf-8"?>
<!-- Generator: Adobe Illustrator 21.0.2, SVG Export Plug-In . SVG Version: 6.00 Build 0)  -->
<svg version="1.1" id="Layer_1" xmlns="http://www.w3.org/2000/svg" xmlns:xlink="http://www.w3.org/1999/xlink" x="0px" y="0px"
	 viewBox="0 0 472.1 90.4" style="enable-background:new 0 0 472.1 90.4;" xml:space="preserve">
<style type="text/css">
	.st0{fill:#FFFFFF;}
	.st1{opacity:0.5;}
	.st2{fill:#676767;}
	.st3{fill:#043B58;}
</style>
<g>
	<g>
		<path class="st0" d="M18.1,13.7C13,10,7.8,6.5,2.5,3.1v51.5c9.8-9.8,19.7-19.7,29.7-29.7C27,20.7,22.7,17,18.1,13.7z"/>
		<path class="st0" d="M28.1,1.8c17.3,17.3,33.4,35.7,45,57.7c2,3.8,3.4,7.9,5.1,11.9c-0.5,0.2-0.9,0.5-1.4,0.7
			c-0.9-1-1.7-2.1-2.6-3.1c-9.8-11.1-19.7-22.2-29.5-33.4c-2.4-2.8-4-2-6.2,0.2C26.6,48,14.5,60.1,2.5,72.1v15.8h86.1V1.8H28.1z
			 M52.3,22.1c-2.8-3.3-5.6-6.4-8.3-9.5c0.4-0.3,0.7-0.6,1.1-0.9C50.3,13.8,54.4,19.2,52.3,22.1z"/>
	</g>
	<g>
		<g>
			<path class="st0" d="M120.5,54.3h11.2l7.7,22h0.1l7.8-22h11.2V88h-7.4V62.2H151L142.1,88h-5.7L128,62.2h-0.1V88h-7.4V54.3z"/>
			<path class="st0" d="M165.2,54.3h7.4V88h-7.4V54.3z"/>
			<path class="st0" d="M179.4,54.3h10.1l14.3,23.4h0.1V54.3h7.4V88h-9.7L186.9,64h-0.1V88h-7.4V54.3z"/>
			<path class="st0" d="M218,54.3h7.4V88H218V54.3z"/>
			<path class="st0" d="M232.2,54.3h10.1l14.3,23.4h0.1V54.3h7.4V88h-9.7L239.7,64h-0.1V88h-7.4V54.3z"/>
			<path class="st0" d="M301.4,85.6c-2.2,1.1-4.5,2-6.8,2.5c-2.4,0.5-4.8,0.8-7.3,0.8c-2.6,0-5.1-0.4-7.3-1.2
				c-2.2-0.8-4.1-2-5.7-3.5c-1.6-1.5-2.9-3.4-3.8-5.6c-0.9-2.2-1.4-4.6-1.4-7.3c0-2.7,0.5-5.1,1.4-7.3c0.9-2.2,2.2-4,3.8-5.6
				c1.6-1.5,3.5-2.7,5.7-3.5c2.2-0.8,4.6-1.2,7.3-1.2c2.7,0,5.2,0.3,7.4,1c2.3,0.7,4.3,1.8,6,3.3l-5.2,5.7c-1-1-2.2-1.8-3.4-2.4
				c-1.3-0.5-2.9-0.8-4.8-0.8c-1.6,0-3,0.3-4.3,0.8c-1.3,0.5-2.4,1.3-3.3,2.3c-0.9,1-1.6,2.1-2.1,3.4c-0.5,1.3-0.7,2.8-0.7,4.3
				c0,1.6,0.2,3,0.7,4.3c0.5,1.3,1.2,2.5,2.1,3.4c0.9,1,2,1.7,3.3,2.3c1.3,0.5,2.7,0.8,4.3,0.8c1.6,0,3-0.2,4.2-0.5
				c1.2-0.4,2.1-0.7,2.8-1.1v-5.5h-6V68h13.2V85.6z"/>
			<path class="st0" d="M321.9,54.3h12.5c1.5,0,2.9,0.1,4.4,0.3c1.5,0.2,2.8,0.6,4,1.2c1.2,0.6,2.1,1.5,2.9,2.6
				c0.7,1.1,1.1,2.6,1.1,4.4c0,1.9-0.5,3.5-1.6,4.7c-1.1,1.3-2.5,2.1-4.2,2.7v0.1c1.1,0.2,2.1,0.5,3,0.9c0.9,0.5,1.7,1,2.3,1.8
				c0.6,0.7,1.1,1.5,1.5,2.5c0.3,0.9,0.5,2,0.5,3c0,1.8-0.4,3.3-1.1,4.4c-0.8,1.2-1.7,2.1-2.9,2.9c-1.2,0.7-2.6,1.3-4.1,1.6
				c-1.5,0.3-3,0.5-4.5,0.5h-13.8V54.3z M329.4,67.8h5.4c0.6,0,1.1-0.1,1.7-0.2c0.6-0.1,1.1-0.3,1.5-0.6c0.4-0.3,0.8-0.7,1.1-1.1
				c0.3-0.5,0.4-1,0.4-1.7c0-0.7-0.2-1.3-0.5-1.7c-0.3-0.5-0.7-0.8-1.2-1.1c-0.5-0.3-1-0.4-1.6-0.5c-0.6-0.1-1.2-0.2-1.8-0.2h-5
				V67.8z M329.4,81.7h6.7c0.6,0,1.1-0.1,1.7-0.2c0.6-0.1,1.1-0.3,1.6-0.7c0.5-0.3,0.9-0.7,1.2-1.2c0.3-0.5,0.5-1.1,0.5-1.9
				c0-0.8-0.2-1.4-0.6-1.9c-0.4-0.5-0.9-0.9-1.5-1.1c-0.6-0.3-1.3-0.4-1.9-0.5c-0.7-0.1-1.3-0.1-1.9-0.1h-5.6V81.7z"/>
			<path class="st0" d="M350.9,71.1c0-2.7,0.5-5.1,1.4-7.3c0.9-2.2,2.2-4,3.8-5.6c1.6-1.5,3.5-2.7,5.7-3.5c2.2-0.8,4.6-1.2,7.3-1.2
				c2.6,0,5.1,0.4,7.3,1.2c2.2,0.8,4.1,2,5.7,3.5c1.6,1.5,2.9,3.4,3.8,5.6c0.9,2.2,1.4,4.6,1.4,7.3c0,2.7-0.5,5.1-1.4,7.3
				c-0.9,2.2-2.2,4-3.8,5.6c-1.6,1.5-3.5,2.7-5.7,3.5c-2.2,0.8-4.6,1.2-7.3,1.2c-2.6,0-5.1-0.4-7.3-1.2c-2.2-0.8-4.1-2-5.7-3.5
				c-1.6-1.5-2.9-3.4-3.8-5.6C351.4,76.3,350.9,73.8,350.9,71.1z M358.6,71.1c0,1.6,0.2,3,0.7,4.3c0.5,1.3,1.2,2.5,2.1,3.4
				c0.9,1,2,1.7,3.3,2.3c1.3,0.5,2.7,0.8,4.3,0.8s3-0.3,4.3-0.8c1.3-0.5,2.4-1.3,3.3-2.3c0.9-1,1.6-2.1,2.1-3.4
				c0.5-1.3,0.7-2.8,0.7-4.3c0-1.6-0.2-3-0.7-4.3c-0.5-1.3-1.2-2.5-2.1-3.4c-0.9-1-2-1.7-3.3-2.3c-1.3-0.5-2.7-0.8-4.3-0.8
				s-3,0.3-4.3,0.8c-1.3,0.5-2.4,1.3-3.3,2.3c-0.9,1-1.6,2.1-2.1,3.4C358.9,68.1,358.6,69.6,358.6,71.1z"/>
			<path class="st0" d="M390.5,71.1c0-2.7,0.5-5.1,1.4-7.3c0.9-2.2,2.2-4,3.8-5.6c1.6-1.5,3.5-2.7,5.7-3.5c2.2-0.8,4.6-1.2,7.3-1.2
				c2.6,0,5.1,0.4,7.3,1.2c2.2,0.8,4.1,2,5.7,3.5c1.6,1.5,2.9,3.4,3.8,5.6c0.9,2.2,1.4,4.6,1.4,7.3c0,2.7-0.5,5.1-1.4,7.3
				c-0.9,2.2-2.2,4-3.8,5.6c-1.6,1.5-3.5,2.7-5.7,3.5c-2.2,0.8-4.6,1.2-7.3,1.2c-2.6,0-5.1-0.4-7.3-1.2c-2.2-0.8-4.1-2-5.7-3.5
				c-1.6-1.5-2.9-3.4-3.8-5.6C390.9,76.3,390.5,73.8,390.5,71.1z M398.2,71.1c0,1.6,0.2,3,0.7,4.3c0.5,1.3,1.2,2.5,2.1,3.4
				c0.9,1,2,1.7,3.3,2.3c1.3,0.5,2.7,0.8,4.3,0.8s3-0.3,4.3-0.8c1.3-0.5,2.4-1.3,3.3-2.3c0.9-1,1.6-2.1,2.1-3.4
				c0.5-1.3,0.7-2.8,0.7-4.3c0-1.6-0.2-3-0.7-4.3c-0.5-1.3-1.2-2.5-2.1-3.4c-0.9-1-2-1.7-3.3-2.3c-1.3-0.5-2.7-0.8-4.3-0.8
				s-3,0.3-4.3,0.8c-1.3,0.5-2.4,1.3-3.3,2.3c-0.9,1-1.6,2.1-2.1,3.4C398.4,68.1,398.2,69.6,398.2,71.1z"/>
			<path class="st0" d="M431.8,54.3H443l7.7,22h0.1l7.8-22h11.2V88h-7.4V62.2h-0.1L453.5,88h-5.7l-8.5-25.8h-0.1V88h-7.4V54.3z"/>
		</g>
	</g>
	<g class="st1">
		<path class="st0" d="M162,42.2h-19.1v-3.4c1.5,0,2.5-0.2,3.1-0.6c0.6-0.4,1-0.9,1.2-1.7c0.1-0.7,0.2-2,0.2-3.7V22.5
			c0-2.1-0.3-3.7-0.9-5c-0.6-1.2-1.9-1.8-3.8-1.8c-2.6,0-4.5,1-5.8,3c-1.3,2-1.9,4.3-1.9,6.8v8.3c0,1.9,0.3,3.3,0.8,4
			c0.6,0.7,1.8,1.1,3.7,1.1v3.4h-19.5v-3.4c1.6,0,2.8-0.1,3.5-0.4c0.8-0.3,1.3-0.8,1.5-1.5c0.2-0.7,0.4-1.9,0.4-3.5V21.5
			c0-1.7-0.3-2.8-1-3.4c-0.7-0.5-2.1-0.8-4.4-0.8v-3.4l14.4-3.2c0.2,1.4,0.3,2.8,0.3,4c0,0.3,0,0.6,0,0.8c0,0.2,0,0.5,0,0.8
			c1.5-1.6,3.2-3,4.8-4c1.7-1,3.8-1.6,6.3-1.6c2.1,0,4,0.4,5.7,1.1c1.7,0.8,3,1.9,4,3.5c1,1.5,1.4,3.4,1.4,5.6v12.4
			c0,2.1,0.3,3.5,0.8,4.2c0.6,0.8,2,1.1,4.3,1.1V42.2z"/>
		<path class="st0" d="M195.2,26h-22.7c0,0.5,0.1,1.5,0.2,3c0.1,1.5,0.5,3.1,1,4.7c0.6,1.6,1.6,2.9,3,4c1.4,1.1,3.3,1.6,5.7,1.6
			c1.3,0,2.9-0.3,4.7-1c1.8-0.7,3.4-1.9,4.8-3.8l2.9,2c-2.9,4.6-7.5,7-13.8,7c-2.8,0-5.4-0.4-7.7-1.2c-2.3-0.8-4.3-1.9-5.9-3.4
			c-1.6-1.5-2.9-3.2-3.7-5.1c-0.9-2-1.3-4.1-1.3-6.3c0-3,0.7-5.7,2.2-8.3c1.4-2.5,3.5-4.6,6.2-6.1c2.7-1.5,5.7-2.3,9.2-2.3
			c3.4,0,6.2,0.7,8.5,2.2c2.3,1.5,4,3.3,5.2,5.6C194.6,20.9,195.2,23.4,195.2,26z M186,22.6c0-5.6-2.2-8.4-6.6-8.4
			c-2.1,0-3.8,0.8-4.9,2.3c-1.1,1.6-1.8,3.6-1.9,6.1H186z"/>
		<path class="st0" d="M232,42.2h-20.6v-3.4h1.3c1,0,1.9-0.1,2.5-0.3c0.6-0.2,1-0.6,1-1.2c0-0.4-0.6-1.2-1.7-2.4l-3.7-3.9L206,35
			c-1.2,1-1.8,1.8-1.8,2.5c0,0.6,0.3,0.9,1,1.1c0.7,0.1,1.6,0.2,2.9,0.2v3.4h-14.4v-3.4c1.3-0.2,2.6-0.8,4-1.6
			c1.4-0.9,3.4-2.4,6-4.6l4.7-4l-9-9.6c-1.4-1.5-2.4-2.5-3-2.9c-0.7-0.4-1.6-0.7-2.8-0.7V12h20.3v3.4c-1.3,0-2.1,0.1-2.7,0.2
			c-0.5,0.1-0.8,0.5-0.8,1c0,0.4,0.5,1.1,1.5,2.1l3.6,3.9l3.9-3.7c0.5-0.5,0.9-0.8,1.2-1.1c0.3-0.3,0.5-0.5,0.6-0.7
			c0.1-0.2,0.2-0.4,0.2-0.7c0-0.3-0.3-0.6-0.8-0.8c-0.6-0.2-1.5-0.3-2.7-0.3V12h13.6v3.4c-1,0-2.2,0.4-3.5,1.1
			c-1.3,0.8-3.2,2.3-5.8,4.6l-4.5,3.9l10.5,11.4c0.9,1,2.1,1.8,3.5,2.4V42.2z"/>
		<path class="st0" d="M256.7,35.6c-1.3,2.8-2.9,4.8-4.7,6c-1.8,1.2-3.8,1.8-6.2,1.8c-2.9,0-5-0.6-6.4-1.8c-1.4-1.2-2.2-2.5-2.5-4
			c-0.3-1.5-0.5-3.1-0.5-4.9V15.4h-5.6V12c2.3,0,4.4-0.4,6.1-1.3c1.7-0.9,3.1-2.1,4.1-3.6c1-1.5,1.6-3.1,1.9-4.8h3V12h10.4v3.4
			h-10.4V33c0,2.1,0.1,3.7,0.4,4.6c0.3,0.9,1,1.4,2.1,1.4c1.2,0,2.2-0.5,2.9-1.4c0.8-0.9,1.5-2.1,2.2-3.5L256.7,35.6z"/>
	</g>
</g>
</svg>
