<?xml version="1.0" encoding="utf-8"?>
<!-- Generator: Adobe Illustrator 21.0.2, SVG Export Plug-In . SVG Version: 6.00 Build 0)  -->
<svg version="1.1" id="Layer_1" xmlns="http://www.w3.org/2000/svg" xmlns:xlink="http://www.w3.org/1999/xlink" x="0px" y="0px"
	 viewBox="0 0 341 90.4" style="enable-background:new 0 0 341 90.4;" xml:space="preserve">
<style type="text/css">
	.st0{fill:#FFFFFF;}
	.st1{opacity:0.5;}
	.st2{fill:#676767;}
	.st3{fill:#043B58;}
</style>
<g>
	<g>
		<g>
			<path class="st0" d="M67.9,35.4c0,2.5,2.2,4.5,4.7,4.4c2.4-0.1,4.3-2,4.2-4.5c0-2.4-1.9-4.4-4.3-4.4C70.1,30.8,67.9,33,67.9,35.4
				z"/>
			<polygon class="st0" points="67.9,63.9 65.7,71 78.8,71 77,63.9 			"/>
			<path class="st0" d="M60.8,87.9h23c-1-3.8-2.1-7.6-3.2-11.7l-16.6,0C63.9,76.8,61.8,84.2,60.8,87.9z"/>
		</g>
		<g>
			<path class="st0" d="M23.8,61.7c-2.1-1.9-4-3.1-5.4-4.8c-3.9-5-5.6-11-5.9-17.2c-0.8-14.1,2.6-26.9,11.2-37.9H2.2v86.1h21.6
				C23.8,78.9,23.8,69.9,23.8,61.7z"/>
			<path class="st0" d="M39.8,18.2C56,22.6,72.2,27,88.3,31.4V1.8h-44c-1.3,4.4-2.4,8.8-3.5,13.1c-10.4-1-12.9,2-14.7,11
				c-1,5.1,1.4,8.1,8.7,10.8c-0.5,2.1-1.1,4.3-1.7,6.4c-1.1,4.1-2.2,8.3-3.4,12.4l0,0c-0.8,3.7-2,5.4-3,6.2c0,0.2-0.1,0.4-0.1,0.7
				c-0.1,8.5-0.1,17-0.1,25.6h28.4c0-0.2,0.1-0.4,0.2-0.7c3.7-13.4,7.3-26.8,11-40.2c0.1-0.5,0.4-0.9,0.6-1.6
				c1.7,0.4,3.3,0.8,5.2,1.3c-1,3.9-2,7.5-3,11.4c2.2,0,4.3,0,6.6,0c-1-3.7-2-7.7-2.9-11.2c1.5,0.1,2.7,0.5,3.6,0.7l2.3,0.5l0.9,3
				c0.2,0.5,0.3,1.1,0.5,1.7c2.8,10.1,5.5,20.2,8.3,30.2V48c-16.5-4.4-32.9-8.9-49.4-13.4c-2.2-0.6-4.2-1.8-6.3-2.7
				c-3.1-1.3-3.7-3.9-3.1-6.9C30.6,18.9,34,16.6,39.8,18.2z"/>
		</g>
	</g>
	<g>
		<g>
			<path class="st0" d="M118.9,71c0-2.7,0.5-5.1,1.4-7.3c0.9-2.2,2.2-4.1,3.8-5.6s3.5-2.7,5.8-3.5c2.2-0.8,4.6-1.2,7.3-1.2
				c2.6,0,5.1,0.4,7.3,1.2c2.2,0.8,4.1,2,5.8,3.5s2.9,3.4,3.8,5.6c0.9,2.2,1.4,4.6,1.4,7.3c0,2.7-0.5,5.1-1.4,7.3
				c-0.9,2.2-2.2,4.1-3.8,5.6c-1.6,1.5-3.5,2.7-5.8,3.5c-2.2,0.8-4.6,1.2-7.3,1.2c-2.6,0-5.1-0.4-7.3-1.2c-2.2-0.8-4.1-2-5.8-3.5
				c-1.6-1.5-2.9-3.4-3.8-5.6C119.3,76.1,118.9,73.7,118.9,71z M126.6,71c0,1.6,0.2,3,0.7,4.4c0.5,1.3,1.2,2.5,2.1,3.4
				c0.9,1,2,1.7,3.3,2.3c1.3,0.5,2.7,0.8,4.3,0.8c1.6,0,3-0.3,4.3-0.8c1.3-0.5,2.4-1.3,3.3-2.3c0.9-1,1.6-2.1,2.1-3.4
				c0.5-1.3,0.7-2.8,0.7-4.4c0-1.6-0.2-3-0.7-4.3c-0.5-1.3-1.2-2.5-2.1-3.5c-0.9-1-2-1.7-3.3-2.3c-1.3-0.5-2.7-0.8-4.3-0.8
				c-1.6,0-3,0.3-4.3,0.8c-1.3,0.5-2.4,1.3-3.3,2.3c-0.9,1-1.6,2.1-2.1,3.5C126.8,68,126.6,69.4,126.6,71z"/>
			<path class="st0" d="M160.2,54.1h7.4v33.7h-7.4V54.1z"/>
			<path class="st0" d="M174.6,54.1h7.4V81h13.8v6.9h-21.2V54.1z"/>
			<path class="st0" d="M214,54.1h13c1.7,0,3.3,0.2,4.9,0.5c1.5,0.3,2.9,0.9,4,1.7c1.2,0.8,2.1,1.8,2.8,3.1s1,3,1,4.9
				c0,2.4-0.6,4.4-1.9,6.1c-1.2,1.7-3,2.7-5.4,3.2l8.6,14.2h-8.9l-7-13.5h-3.7v13.5H214V54.1z M221.4,68.1h4.4c0.7,0,1.4,0,2.1-0.1
				c0.7,0,1.4-0.2,2-0.4c0.6-0.2,1.1-0.6,1.5-1.1c0.4-0.5,0.6-1.2,0.6-2.1c0-0.9-0.2-1.5-0.5-2s-0.8-0.9-1.3-1.2
				c-0.5-0.3-1.2-0.5-1.9-0.5c-0.7-0.1-1.4-0.1-2-0.1h-4.9V68.1z"/>
			<path class="st0" d="M273.2,74.8c0,2-0.3,3.8-0.9,5.5c-0.6,1.7-1.5,3.1-2.7,4.4c-1.2,1.2-2.7,2.2-4.4,2.9c-1.8,0.7-3.8,1-6.1,1
				c-2.3,0-4.4-0.3-6.2-1c-1.8-0.7-3.3-1.7-4.4-2.9c-1.2-1.2-2.1-2.7-2.7-4.4c-0.6-1.7-0.9-3.5-0.9-5.5V54.1h7.4v20.4
				c0,1,0.2,2,0.5,2.9c0.3,0.9,0.8,1.7,1.4,2.3c0.6,0.7,1.3,1.2,2.2,1.5c0.8,0.4,1.8,0.5,2.7,0.5c1,0,1.9-0.2,2.7-0.5
				c0.8-0.4,1.5-0.9,2.1-1.5c0.6-0.7,1.1-1.4,1.4-2.3c0.3-0.9,0.5-1.9,0.5-2.9V54.1h7.4V74.8z"/>
			<path class="st0" d="M296.7,62.4c-0.6-0.8-1.4-1.3-2.5-1.7c-1-0.4-2-0.5-2.9-0.5c-0.5,0-1.1,0.1-1.7,0.2
				c-0.6,0.1-1.1,0.3-1.6,0.6c-0.5,0.3-0.9,0.6-1.2,1.1c-0.3,0.4-0.5,1-0.5,1.6c0,1,0.4,1.8,1.1,2.3s1.7,1,2.9,1.4
				c1.2,0.4,2.4,0.8,3.7,1.1s2.6,0.9,3.7,1.6c1.2,0.7,2.1,1.6,2.9,2.8c0.8,1.2,1.1,2.7,1.1,4.7c0,1.9-0.3,3.5-1,4.9
				c-0.7,1.4-1.6,2.6-2.8,3.5c-1.2,0.9-2.6,1.6-4.1,2c-1.6,0.4-3.2,0.7-5,0.7c-2.2,0-4.2-0.3-6.1-1c-1.9-0.7-3.6-1.7-5.2-3.2
				l5.3-5.8c0.8,1,1.7,1.8,2.9,2.4c1.2,0.6,2.4,0.8,3.6,0.8c0.6,0,1.2-0.1,1.8-0.2c0.6-0.1,1.2-0.4,1.7-0.6c0.5-0.3,0.9-0.7,1.2-1.1
				c0.3-0.4,0.5-1,0.5-1.6c0-1-0.4-1.8-1.2-2.4c-0.8-0.6-1.8-1.1-2.9-1.5c-1.2-0.4-2.4-0.8-3.8-1.2c-1.4-0.4-2.6-1-3.8-1.7
				c-1.2-0.7-2.2-1.6-2.9-2.8c-0.8-1.1-1.2-2.6-1.2-4.5c0-1.8,0.4-3.4,1.1-4.8c0.7-1.4,1.7-2.5,2.9-3.4s2.6-1.6,4.1-2.1
				c1.6-0.5,3.2-0.7,4.8-0.7c1.9,0,3.7,0.3,5.5,0.8c1.8,0.5,3.4,1.4,4.8,2.7L296.7,62.4z"/>
			<path class="st0" d="M307.4,54.1h7.4v12.6h14.4V54.1h7.4v33.7h-7.4V73.3h-14.4v14.6h-7.4V54.1z"/>
		</g>
	</g>
	<g class="st1">
		<path class="st0" d="M161.3,42h-19.2v-3.4c1.5,0,2.5-0.2,3.1-0.6c0.6-0.4,1-0.9,1.2-1.7c0.1-0.7,0.2-2,0.2-3.7V22.2
			c0-2.1-0.3-3.8-0.9-5c-0.6-1.2-1.9-1.8-3.8-1.8c-2.6,0-4.5,1-5.8,3c-1.3,2-1.9,4.3-1.9,6.9v8.3c0,1.9,0.3,3.3,0.8,4
			c0.6,0.7,1.8,1.1,3.7,1.1V42h-19.5v-3.4c1.6,0,2.8-0.1,3.5-0.4c0.8-0.3,1.3-0.8,1.5-1.5c0.2-0.7,0.4-1.9,0.4-3.5V21.2
			c0-1.7-0.3-2.9-1-3.4c-0.7-0.5-2.1-0.8-4.4-0.8v-3.4l14.4-3.2c0.2,1.4,0.3,2.8,0.3,4c0,0.3,0,0.6,0,0.8c0,0.2,0,0.5,0,0.8
			c1.5-1.7,3.2-3,4.8-4c1.7-1.1,3.8-1.6,6.3-1.6c2.1,0,4,0.4,5.7,1.1c1.7,0.8,3,1.9,4,3.5c1,1.5,1.4,3.4,1.4,5.6v12.5
			c0,2.1,0.3,3.5,0.8,4.3c0.6,0.8,2,1.1,4.3,1.1V42z"/>
		<path class="st0" d="M194.5,25.7h-22.7c0,0.5,0.1,1.5,0.2,3c0.1,1.5,0.5,3.1,1,4.7c0.6,1.6,1.6,3,3,4c1.4,1.1,3.3,1.6,5.7,1.6
			c1.3,0,2.9-0.3,4.7-1c1.8-0.7,3.5-1.9,4.8-3.8l2.9,2c-2.9,4.7-7.5,7-13.9,7c-2.8,0-5.4-0.4-7.7-1.2c-2.3-0.8-4.3-1.9-5.9-3.4
			s-2.9-3.2-3.7-5.1c-0.9-2-1.3-4.1-1.3-6.4c0-3,0.7-5.7,2.2-8.3c1.4-2.5,3.5-4.6,6.2-6.1c2.7-1.5,5.8-2.3,9.2-2.3
			c3.4,0,6.2,0.7,8.6,2.2c2.3,1.5,4,3.3,5.2,5.7C194,20.6,194.5,23.1,194.5,25.7z M185.3,22.3c0-5.6-2.2-8.4-6.7-8.4
			c-2.1,0-3.8,0.8-4.9,2.3c-1.1,1.6-1.8,3.6-1.9,6.1H185.3z"/>
		<path class="st0" d="M231.3,42h-20.7v-3.4h1.3c1,0,1.9-0.1,2.5-0.3s1-0.6,1-1.2c0-0.4-0.6-1.2-1.7-2.4l-3.7-3.9l-4.7,3.9
			c-1.2,1-1.8,1.8-1.8,2.5c0,0.6,0.3,0.9,1,1.1c0.7,0.1,1.6,0.2,2.9,0.2V42h-14.4v-3.4c1.3-0.2,2.6-0.8,4-1.6c1.4-0.9,3.4-2.4,6-4.6
			l4.7-4l-9-9.6c-1.4-1.5-2.4-2.5-3.1-2.9c-0.7-0.4-1.6-0.7-2.8-0.7v-3.4h20.3v3.4c-1.3,0-2.1,0.1-2.7,0.2c-0.5,0.1-0.8,0.5-0.8,1
			c0,0.4,0.5,1.1,1.5,2.1l3.6,3.9l3.9-3.7c0.5-0.5,0.9-0.8,1.2-1.1c0.3-0.3,0.5-0.5,0.6-0.7c0.1-0.2,0.2-0.4,0.2-0.7
			c0-0.3-0.3-0.6-0.8-0.8c-0.6-0.2-1.5-0.3-2.7-0.3v-3.4H231v3.4c-1,0-2.2,0.4-3.5,1.1c-1.3,0.8-3.2,2.3-5.8,4.6l-4.5,3.9l10.5,11.4
			c0.9,1,2.1,1.8,3.6,2.4V42z"/>
		<path class="st0" d="M256.1,35.4c-1.3,2.8-2.9,4.8-4.7,6c-1.8,1.2-3.9,1.8-6.2,1.8c-2.9,0-5.1-0.6-6.4-1.8c-1.4-1.2-2.2-2.5-2.6-4
			c-0.3-1.5-0.5-3.1-0.5-4.9V15.1h-5.6v-3.4c2.3,0,4.4-0.4,6.1-1.3c1.7-0.9,3.1-2.1,4.1-3.6c1-1.5,1.6-3.1,1.9-4.8h3v9.8h10.5v3.4
			h-10.5v17.6c0,2.1,0.1,3.7,0.4,4.6c0.3,1,1,1.4,2.1,1.4c1.2,0,2.2-0.5,2.9-1.4c0.8-0.9,1.5-2.1,2.2-3.5L256.1,35.4z"/>
	</g>
</g>
</svg>
