<?xml version="1.0" encoding="utf-8"?>
<!-- Generator: Adobe Illustrator 21.0.2, SVG Export Plug-In . SVG Version: 6.00 Build 0)  -->
<svg version="1.1" id="Layer_1" xmlns="http://www.w3.org/2000/svg" xmlns:xlink="http://www.w3.org/1999/xlink" x="0px" y="0px"
	 viewBox="0 0 153.7 89.9" style="enable-background:new 0 0 153.7 89.9;" xml:space="preserve">
<style type="text/css">
	.st0{fill:#FFFFFF;}
	.st1{fill:#676767;}
	.st2{fill:#033B59;}
</style>
<g>
	<g>
		<g>
			<path class="st0" d="M12.7,68.1c0.9,0,1.7,0.1,2.5,0.4c0.7,0.3,1.4,0.7,1.9,1.2c0.5,0.5,0.9,1.1,1.2,1.8c0.3,0.7,0.4,1.4,0.4,2.2
				c0,1.2-0.3,2.2-0.8,3.1c-0.5,0.9-1.3,1.5-2.5,2v0.1c0.6,0.2,1,0.4,1.4,0.7c0.4,0.3,0.7,0.7,0.9,1.1c0.2,0.4,0.4,0.9,0.5,1.4
				c0.1,0.5,0.2,1,0.2,1.5c0,0.3,0,0.7,0.1,1.1c0,0.4,0.1,0.9,0.1,1.3c0,0.5,0.1,0.9,0.2,1.3c0.1,0.4,0.3,0.8,0.5,1h-4.5
				c-0.2-0.7-0.4-1.4-0.5-2.3c-0.1-0.9-0.1-1.8-0.3-2.6c-0.2-1.1-0.5-1.9-1-2.4c-0.5-0.5-1.3-0.7-2.4-0.7H6.1v8H1.6V68.1H12.7z
				 M11.1,77.4c1,0,1.8-0.2,2.3-0.7c0.5-0.5,0.8-1.2,0.8-2.2c0-1-0.3-1.7-0.8-2.2c-0.5-0.4-1.3-0.7-2.3-0.7H6.1v5.8H11.1z"/>
			<path class="st0" d="M21.7,78.3c0.1-1,0.3-1.7,0.7-2.4c0.4-0.6,1-1.1,1.6-1.5c0.6-0.4,1.4-0.7,2.2-0.8c0.8-0.2,1.6-0.2,2.5-0.2
				c0.7,0,1.5,0.1,2.3,0.2c0.8,0.1,1.5,0.3,2.1,0.6c0.6,0.3,1.1,0.7,1.5,1.3c0.4,0.5,0.6,1.3,0.6,2.2v7.7c0,0.7,0,1.3,0.1,1.9
				c0.1,0.6,0.2,1.1,0.4,1.4h-4.1c-0.1-0.2-0.1-0.5-0.2-0.7c0-0.2-0.1-0.5-0.1-0.7c-0.7,0.7-1.4,1.1-2.3,1.4
				c-0.9,0.3-1.8,0.4-2.7,0.4c-0.7,0-1.4-0.1-2-0.3c-0.6-0.2-1.1-0.4-1.6-0.8c-0.5-0.4-0.8-0.8-1.1-1.4c-0.3-0.6-0.4-1.2-0.4-2
				c0-0.8,0.1-1.5,0.4-2.1c0.3-0.5,0.7-1,1.1-1.3c0.5-0.3,1-0.6,1.6-0.7c0.6-0.2,1.2-0.3,1.8-0.4c0.6-0.1,1.2-0.2,1.8-0.2
				c0.6-0.1,1.1-0.1,1.6-0.3c0.5-0.1,0.8-0.3,1.1-0.5c0.3-0.2,0.4-0.5,0.4-1c0-0.4-0.1-0.8-0.2-1c-0.1-0.3-0.3-0.5-0.6-0.6
				c-0.2-0.1-0.5-0.2-0.8-0.3c-0.3,0-0.7-0.1-1-0.1c-0.8,0-1.4,0.2-1.9,0.5c-0.5,0.3-0.7,0.9-0.8,1.7H21.7z M31.1,81.3
				c-0.2,0.2-0.4,0.3-0.6,0.4c-0.3,0.1-0.5,0.2-0.8,0.2C29.4,81.9,29,82,28.7,82c-0.3,0-0.7,0.1-1,0.1c-0.3,0.1-0.6,0.1-0.9,0.2
				c-0.3,0.1-0.6,0.2-0.8,0.4c-0.2,0.2-0.4,0.4-0.5,0.6c-0.1,0.2-0.2,0.6-0.2,0.9c0,0.4,0.1,0.7,0.2,0.9c0.1,0.2,0.3,0.4,0.5,0.6
				c0.2,0.1,0.5,0.2,0.8,0.3c0.3,0.1,0.6,0.1,0.9,0.1c0.8,0,1.4-0.1,1.9-0.4c0.4-0.3,0.8-0.6,1-1c0.2-0.4,0.3-0.8,0.4-1.1
				c0-0.4,0.1-0.7,0.1-0.9V81.3z"/>
			<path class="st0" d="M38.5,71.4v-3.4h4.1v3.4H38.5z M42.5,73.7v14.8h-4.1V73.7H42.5z"/>
			<path class="st0" d="M49.2,84.9c0.2,0.3,0.4,0.6,0.7,0.8c0.3,0.2,0.6,0.3,1,0.4s0.8,0.1,1.2,0.1c0.3,0,0.6,0,0.9-0.1
				c0.3-0.1,0.6-0.2,0.9-0.3c0.3-0.1,0.5-0.3,0.6-0.6c0.2-0.2,0.3-0.5,0.3-0.9c0-0.6-0.4-1.1-1.2-1.4c-0.8-0.3-1.9-0.6-3.4-0.9
				c-0.6-0.1-1.2-0.3-1.7-0.5c-0.6-0.2-1.1-0.4-1.5-0.7c-0.4-0.3-0.8-0.7-1.1-1.1c-0.3-0.4-0.4-1-0.4-1.6c0-1,0.2-1.7,0.6-2.4
				c0.4-0.6,0.9-1.1,1.5-1.4c0.6-0.4,1.3-0.6,2.1-0.7c0.8-0.1,1.5-0.2,2.4-0.2c0.8,0,1.6,0.1,2.3,0.2c0.8,0.2,1.4,0.4,2,0.8
				c0.6,0.4,1.1,0.8,1.5,1.4c0.4,0.6,0.6,1.4,0.7,2.3h-3.9c-0.1-0.8-0.4-1.3-0.9-1.6c-0.5-0.3-1.2-0.4-1.9-0.4c-0.2,0-0.5,0-0.7,0
				c-0.3,0-0.5,0.1-0.7,0.2c-0.2,0.1-0.4,0.2-0.6,0.4c-0.2,0.2-0.2,0.4-0.2,0.7c0,0.4,0.1,0.7,0.4,0.9c0.3,0.2,0.6,0.4,1,0.6
				s0.9,0.3,1.5,0.4c0.6,0.1,1.1,0.2,1.7,0.4c0.6,0.1,1.2,0.3,1.7,0.5c0.6,0.2,1.1,0.4,1.5,0.8c0.4,0.3,0.8,0.7,1.1,1.2
				c0.3,0.5,0.4,1,0.4,1.7c0,1-0.2,1.8-0.6,2.5c-0.4,0.7-0.9,1.2-1.5,1.6c-0.6,0.4-1.4,0.7-2.2,0.8c-0.8,0.2-1.6,0.2-2.5,0.2
				c-0.9,0-1.7-0.1-2.5-0.3c-0.8-0.2-1.6-0.5-2.2-0.9c-0.6-0.4-1.2-0.9-1.6-1.6c-0.4-0.7-0.6-1.5-0.7-2.5h3.9
				C48.9,84.2,49,84.6,49.2,84.9z"/>
			<path class="st0" d="M65.5,85c0.6,0.6,1.5,0.9,2.6,0.9c0.8,0,1.5-0.2,2.1-0.6c0.6-0.4,1-0.8,1.1-1.3H75c-0.6,1.8-1.5,3.1-2.6,3.8
				c-1.2,0.8-2.6,1.1-4.3,1.1c-1.2,0-2.2-0.2-3.2-0.6c-0.9-0.4-1.7-0.9-2.4-1.6c-0.7-0.7-1.2-1.5-1.5-2.5c-0.4-1-0.5-2-0.5-3.2
				c0-1.1,0.2-2.1,0.5-3.1c0.4-1,0.9-1.8,1.5-2.5c0.7-0.7,1.5-1.2,2.4-1.6c0.9-0.4,2-0.6,3.1-0.6c1.3,0,2.4,0.2,3.3,0.7
				c0.9,0.5,1.7,1.1,2.3,2c0.6,0.8,1,1.8,1.3,2.8c0.3,1.1,0.4,2.2,0.3,3.3H64.5C64.6,83.5,64.9,84.4,65.5,85z M70.1,77.2
				c-0.5-0.5-1.2-0.8-2.2-0.8c-0.7,0-1.2,0.1-1.6,0.3c-0.4,0.2-0.8,0.5-1,0.8c-0.3,0.3-0.4,0.7-0.5,1c-0.1,0.4-0.2,0.7-0.2,1h6.6
				C71,78.5,70.6,77.7,70.1,77.2z"/>
			<path class="st0" d="M81.7,68.1v7.5h0.1c0.5-0.8,1.2-1.3,2-1.7c0.9-0.4,1.7-0.5,2.7-0.5c0.7,0,1.5,0.2,2.2,0.5
				c0.7,0.3,1.4,0.8,2,1.4c0.6,0.6,1.1,1.4,1.4,2.4c0.4,1,0.5,2.2,0.5,3.5c0,1.4-0.2,2.5-0.5,3.5c-0.4,1-0.8,1.8-1.4,2.4
				c-0.6,0.6-1.2,1.1-2,1.4c-0.7,0.3-1.5,0.5-2.2,0.5c-1.1,0-2.1-0.2-2.9-0.5c-0.9-0.3-1.5-0.9-2-1.7h-0.1v1.9h-3.9V68.1H81.7z
				 M88.3,79.4c-0.1-0.6-0.3-1.1-0.6-1.5c-0.3-0.4-0.6-0.8-1.1-1c-0.4-0.3-1-0.4-1.6-0.4c-0.6,0-1.1,0.1-1.5,0.4
				c-0.4,0.3-0.8,0.6-1.1,1c-0.3,0.4-0.5,0.9-0.6,1.5c-0.1,0.6-0.2,1.2-0.2,1.8c0,0.6,0.1,1.2,0.2,1.8c0.1,0.6,0.3,1.1,0.6,1.5
				c0.3,0.4,0.6,0.8,1.1,1c0.4,0.3,1,0.4,1.5,0.4c0.6,0,1.1-0.1,1.6-0.4c0.4-0.3,0.8-0.6,1.1-1c0.3-0.4,0.5-0.9,0.6-1.5
				c0.1-0.6,0.2-1.2,0.2-1.8C88.5,80.5,88.4,79.9,88.3,79.4z"/>
			<path class="st0" d="M95.2,77.9c0.4-1,0.9-1.8,1.5-2.5c0.7-0.7,1.5-1.2,2.4-1.6c0.9-0.4,2-0.6,3.2-0.6c1.2,0,2.2,0.2,3.2,0.6
				c0.9,0.4,1.8,0.9,2.4,1.6c0.7,0.7,1.2,1.5,1.5,2.5c0.4,1,0.5,2,0.5,3.2s-0.2,2.3-0.5,3.2c-0.4,1-0.9,1.8-1.5,2.5
				c-0.7,0.7-1.5,1.2-2.4,1.6c-0.9,0.4-2,0.5-3.2,0.5c-1.2,0-2.2-0.2-3.2-0.5c-0.9-0.4-1.7-0.9-2.4-1.6c-0.7-0.7-1.2-1.5-1.5-2.5
				c-0.4-1-0.5-2-0.5-3.2S94.9,78.9,95.2,77.9z M98.9,82.9c0.1,0.6,0.3,1.1,0.6,1.5c0.3,0.4,0.6,0.8,1.1,1.1c0.5,0.3,1,0.4,1.7,0.4
				c0.7,0,1.3-0.1,1.7-0.4c0.5-0.3,0.8-0.6,1.1-1.1c0.3-0.4,0.5-1,0.6-1.5c0.1-0.6,0.2-1.1,0.2-1.7c0-0.6-0.1-1.2-0.2-1.8
				c-0.1-0.6-0.3-1.1-0.6-1.5c-0.3-0.4-0.7-0.8-1.1-1.1c-0.5-0.3-1-0.4-1.7-0.4c-0.7,0-1.3,0.1-1.7,0.4c-0.5,0.3-0.8,0.6-1.1,1.1
				c-0.3,0.4-0.5,0.9-0.6,1.5c-0.1,0.6-0.2,1.2-0.2,1.8C98.8,81.8,98.8,82.3,98.9,82.9z"/>
			<path class="st0" d="M112.2,77.9c0.4-1,0.9-1.8,1.5-2.5c0.7-0.7,1.5-1.2,2.4-1.6c0.9-0.4,2-0.6,3.2-0.6c1.2,0,2.2,0.2,3.2,0.6
				c0.9,0.4,1.8,0.9,2.4,1.6c0.7,0.7,1.2,1.5,1.5,2.5c0.4,1,0.5,2,0.5,3.2s-0.2,2.3-0.5,3.2c-0.4,1-0.9,1.8-1.5,2.5
				c-0.7,0.7-1.5,1.2-2.4,1.6c-0.9,0.4-2,0.5-3.2,0.5c-1.2,0-2.2-0.2-3.2-0.5c-0.9-0.4-1.7-0.9-2.4-1.6c-0.7-0.7-1.2-1.5-1.5-2.5
				c-0.4-1-0.5-2-0.5-3.2S111.8,78.9,112.2,77.9z M115.9,82.9c0.1,0.6,0.3,1.1,0.6,1.5c0.3,0.4,0.6,0.8,1.1,1.1
				c0.5,0.3,1,0.4,1.7,0.4c0.7,0,1.3-0.1,1.7-0.4c0.5-0.3,0.8-0.6,1.1-1.1c0.3-0.4,0.5-1,0.6-1.5c0.1-0.6,0.2-1.1,0.2-1.7
				c0-0.6-0.1-1.2-0.2-1.8c-0.1-0.6-0.3-1.1-0.6-1.5c-0.3-0.4-0.7-0.8-1.1-1.1c-0.5-0.3-1-0.4-1.7-0.4c-0.7,0-1.3,0.1-1.7,0.4
				c-0.5,0.3-0.8,0.6-1.1,1.1c-0.3,0.4-0.5,0.9-0.6,1.5c-0.1,0.6-0.2,1.2-0.2,1.8C115.7,81.8,115.8,82.3,115.9,82.9z"/>
			<path class="st0" d="M133.5,68.1v11l5.1-5.3h4.8l-5.6,5.4l6.2,9.4h-4.9l-4.1-6.6l-1.6,1.5v5.1h-4.1V68.1H133.5z"/>
			<g>
				<path class="st0" d="M148.4,69.7h-0.8v2.3h-0.3v-2.3h-0.8v-0.3h2V69.7z"/>
				<path class="st0" d="M148.6,69.4h0.5l0.9,2h0l0.9-2h0.4v2.6h-0.3v-2.1h0l-0.9,2.1h-0.2l-0.9-2.1h0v2.1h-0.3V69.4z"/>
			</g>
			<g>
				<path class="st0" d="M54.8,1.5v17.9l0,2.2h0.1c1,14.2,7.8,26.1,17,29.5l0.7,0.3l1.3,0.3l1.7-0.4c0.1,0,1.9-0.8,1.9-0.8
					C85.9,46.4,92,35,93,21.6h0.1V1.5H54.8z"/>
				<g>
					<rect id="XMLID_15_" x="57" y="3.7" class="st1" width="33.8" height="13.7"/>
					<path class="st2" d="M90.9,19.4H57.1c0.4,14.5,7,26.5,15.7,29.6l1.1,0.4l1-0.3v0c0.1,0,0.1,0,0.2-0.1l0.2-0.1v0
						C83.9,45.8,90.5,33.9,90.9,19.4z"/>
					<polygon class="st0" points="70.5,14.1 74,10.9 77.4,14.1 80.9,14.1 74.1,7.7 74,7.6 74,7.6 74,7.6 73.8,7.7 67.1,14.1 					
						"/>
				</g>
				<g>
					<path class="st0" d="M69.8,24.7h4.6v2.4h0.1c0.5-0.9,1.1-1.6,1.8-2.1c0.7-0.5,1.5-0.7,2.6-0.7c0.3,0,0.5,0,0.8,0
						c0.3,0,0.5,0.1,0.7,0.1v4.2c-0.3-0.1-0.7-0.2-1-0.2c-0.3-0.1-0.7-0.1-1-0.1c-0.9,0-1.6,0.1-2.1,0.4c-0.5,0.2-0.9,0.6-1.2,1
						c-0.3,0.4-0.5,1-0.5,1.6c-0.1,0.6-0.1,1.3-0.1,2v6.3h-4.6V24.7z"/>
				</g>
			</g>
		</g>
	</g>
</g>
</svg>
