<!--Scalable Vector Graphic-->
<svg xmlns="http://www.w3.org/2000/svg" 
     xmlns:xlink="http://www.w3.org/1999/xlink"  
     width="31px" 
     height="31px" 
     viewBox="0 0 31 31" style="position: absolute; width: 0; height: 0; overflow: hidden">
	<path id="icon-facebook-square" data-name="&lt;Compound Path&gt;" class="cls-1" d="M30.7,15.53A15.07,15.07,0,1,1,15.63.46,15.07,15.07,0,0,1,30.7,15.53ZM11.76,12.91v2.34h1.62V23.4h3V15.25h2.4L19,12.91H16.41V11.08c0-.63.56-.86,1.19-.86a5.47,5.47,0,0,1,1.31.2L19.32,8a10.21,10.21,0,0,0-2.9-.29A2.88,2.88,0,0,0,13.9,8.9a4.21,4.21,0,0,0-.52,2.43v1.58Z"/>	
	<path id="icon-twitter-square" data-name="&lt;Compound Path&gt;" class="cls-1" d="M30.63,15.48a15,15,0,1,1-15-15A15,15,0,0,1,30.63,15.48Zm-7.14-5.25a6.58,6.58,0,0,1-1.89.52A3.3,3.3,0,0,0,23,8.93a6.59,6.59,0,0,1-2.09.8,3.3,3.3,0,0,0-5.61,3A9.35,9.35,0,0,1,8.56,9.3a3.3,3.3,0,0,0,1,4.4,3.28,3.28,0,0,1-1.49-.41v0a3.3,3.3,0,0,0,2.64,3.23,3.3,3.3,0,0,1-1.49.06,3.3,3.3,0,0,0,3.08,2.29A6.61,6.61,0,0,1,8.23,20.3a6.71,6.71,0,0,1-.79,0,9.37,9.37,0,0,0,14.42-7.89q0-.21,0-.43A6.69,6.69,0,0,0,23.49,10.24Z"/>
	<path id="icon-linkedin-square" data-name="&lt;Compound Path&gt;" class="cls-1" d="M30.72,15.53A15.07,15.07,0,1,1,15.65.46,15.07,15.07,0,0,1,30.72,15.53ZM8.41,21.64h3.21V12H8.41ZM10,7.35a1.67,1.67,0,1,0,0,3.33h0a1.67,1.67,0,1,0,0-3.33Zm9.45,4.42a3.18,3.18,0,0,0-2.89,1.59v0h0l0,0V12H13.39c0,.9,0,9.64,0,9.64h3.21V16.25a2.2,2.2,0,0,1,.11-.78,1.75,1.75,0,0,1,1.64-1.17c1.16,0,1.62.88,1.62,2.18v5.16h3.21V16.11C23.17,13.15,21.59,11.77,19.48,11.77Z"/>
     <g id="icon-google-square" data-name="&lt;Group&gt;"><path id="_Path_" data-name="&lt;Path&gt;" class="cls-1" d="M14.15,19.16a2.34,2.34,0,0,0-.65-.23c-.72-.13-1.44-.21-2.16-.36a1.39,1.39,0,0,0-1,.17,1.25,1.25,0,0,0-.76,1.13,1.13,1.13,0,0,0,.83,1.07c.53.18,1.09.26,1.64.39l0-.07c.28,0,.57,0,.85-.07a2.6,2.6,0,0,0,1.46-.59A.86.86,0,0,0,14.15,19.16Z"/><path id="_Path_2" data-name="&lt;Path&gt;" class="cls-1" d="M11.6,14a1.58,1.58,0,0,0,1.73-1.23,3,3,0,0,0,0-1.68,1.58,1.58,0,0,0-1.73-1.24A1.6,1.6,0,0,0,10,11.23c-.05.23-.07.47-.1.71s0,.5.1.75A1.6,1.6,0,0,0,11.6,14Z"/><path data-name="&lt;Compound Path&gt;" class="cls-1" d="M15.65.47A15.07,15.07,0,1,0,30.72,15.54,15.07,15.07,0,0,0,15.65.47Zm-.72,22.07a7.94,7.94,0,0,1-3.77.42,5.31,5.31,0,0,1-2.36-.73,2.45,2.45,0,0,1-1.33-2.15,2.28,2.28,0,0,1,1.16-2L9,17.88s0,0,0,0a1.51,1.51,0,0,1,.12-2.72l-.28-.27a3.92,3.92,0,0,1-1-4.11,3.47,3.47,0,0,1,3-2.6,4.53,4.53,0,0,1,2.93.39.51.51,0,0,0,.39,0,6.07,6.07,0,0,1,2.55-.33c-.05.5-.09,1-.16,1.43,0,.06-.16.13-.24.13-.38,0-.75,0-1.19,0a4.44,4.44,0,0,1,.6,2.33,3.71,3.71,0,0,1-3.77,3.76c-.35,0-.7,0-1-.06-.17,0-.38,0-.39.17a.53.53,0,0,0,.25.42,10,10,0,0,0,1.3.29c.81.14,1.63.22,2.42.41a2.9,2.9,0,0,1,2.28,2A2.79,2.79,0,0,1,14.93,22.54Zm8.63-9H20.88V16H19V13.59H16.28V11.7H19c0-.76,0-1.46,0-2.15,0-.29.08-.38.37-.37.5,0,1,0,1.54,0v2.5h2.69Z"/></g>
</svg>
