<!--Scalable Vector Graphic-->
<svg xmlns="http://www.w3.org/2000/svg" 
     xmlns:xlink="http://www.w3.org/1999/xlink"  
     width="31px" 
     height="31px" 
     viewBox="0 0 31 31">
	<path fill="#676767" data-name="&lt;Compound Path&gt;" class="cls-1" d="M30.63,15.48a15,15,0,1,1-15-15A15,15,0,0,1,30.63,15.48Zm-7.14-5.25a6.58,6.58,0,0,1-1.89.52A3.3,3.3,0,0,0,23,8.93a6.59,6.59,0,0,1-2.09.8,3.3,3.3,0,0,0-5.61,3A9.35,9.35,0,0,1,8.56,9.3a3.3,3.3,0,0,0,1,4.4,3.28,3.28,0,0,1-1.49-.41v0a3.3,3.3,0,0,0,2.64,3.23,3.3,3.3,0,0,1-1.49.06,3.3,3.3,0,0,0,3.08,2.29A6.61,6.61,0,0,1,8.23,20.3a6.71,6.71,0,0,1-.79,0,9.37,9.37,0,0,0,14.42-7.89q0-.21,0-.43A6.69,6.69,0,0,0,23.49,10.24Z"/>
</svg>