<!--Scalable Vector Graphic-->
<svg xmlns="http://www.w3.org/2000/svg" 
     xmlns:xlink="http://www.w3.org/1999/xlink"  
     width="31px" 
     height="31px" 
     viewBox="0 0 31 31">
	
	<style type="text/css">
	.cls-1{fill:#676767;}
	</style>
	
     <g id="_Group_" data-name="&lt;Group&gt;"><path id="_Path_" data-name="&lt;Path&gt;" class="cls-1" d="M14.15,19.16a2.34,2.34,0,0,0-.65-.23c-.72-.13-1.44-.21-2.16-.36a1.39,1.39,0,0,0-1,.17,1.25,1.25,0,0,0-.76,1.13,1.13,1.13,0,0,0,.83,1.07c.53.18,1.09.26,1.64.39l0-.07c.28,0,.57,0,.85-.07a2.6,2.6,0,0,0,1.46-.59A.86.86,0,0,0,14.15,19.16Z"/><path id="_Path_2" data-name="&lt;Path&gt;" class="cls-1" d="M11.6,14a1.58,1.58,0,0,0,1.73-1.23,3,3,0,0,0,0-1.68,1.58,1.58,0,0,0-1.73-1.24A1.6,1.6,0,0,0,10,11.23c-.05.23-.07.47-.1.71s0,.5.1.75A1.6,1.6,0,0,0,11.6,14Z"/><path data-name="&lt;Compound Path&gt;" class="cls-1" d="M15.65.47A15.07,15.07,0,1,0,30.72,15.54,15.07,15.07,0,0,0,15.65.47Zm-.72,22.07a7.94,7.94,0,0,1-3.77.42,5.31,5.31,0,0,1-2.36-.73,2.45,2.45,0,0,1-1.33-2.15,2.28,2.28,0,0,1,1.16-2L9,17.88s0,0,0,0a1.51,1.51,0,0,1,.12-2.72l-.28-.27a3.92,3.92,0,0,1-1-4.11,3.47,3.47,0,0,1,3-2.6,4.53,4.53,0,0,1,2.93.39.51.51,0,0,0,.39,0,6.07,6.07,0,0,1,2.55-.33c-.05.5-.09,1-.16,1.43,0,.06-.16.13-.24.13-.38,0-.75,0-1.19,0a4.44,4.44,0,0,1,.6,2.33,3.71,3.71,0,0,1-3.77,3.76c-.35,0-.7,0-1-.06-.17,0-.38,0-.39.17a.53.53,0,0,0,.25.42,10,10,0,0,0,1.3.29c.81.14,1.63.22,2.42.41a2.9,2.9,0,0,1,2.28,2A2.79,2.79,0,0,1,14.93,22.54Zm8.63-9H20.88V16H19V13.59H16.28V11.7H19c0-.76,0-1.46,0-2.15,0-.29.08-.38.37-.37.5,0,1,0,1.54,0v2.5h2.69Z"/></g>
</svg>