<?xml version="1.0" encoding="utf-8"?>
<!-- Generator: Adobe Illustrator 21.0.2, SVG Export Plug-In . SVG Version: 6.00 Build 0)  -->
<svg version="1.1" id="Layer_1" xmlns="http://www.w3.org/2000/svg" xmlns:xlink="http://www.w3.org/1999/xlink" x="0px" y="0px"
	 viewBox="0 0 334.2 90.4" style="enable-background:new 0 0 334.2 90.4;" xml:space="preserve">
<style type="text/css">
	.st0{fill:#FFFFFF;}
	.st1{opacity:0.5;}
	.st2{fill:#676767;}
	.st3{fill:#043B58;}
</style>
<g>
	<g>
		<g>
			<path class="st0" d="M119.9,53.4h12.6c1.5,0,3,0.1,4.4,0.4s2.8,0.6,3.9,1.2c1.2,0.6,2.1,1.5,2.8,2.6c0.7,1.1,1.1,2.6,1.1,4.4
				c0,1.8-0.5,3.4-1.6,4.8c-1.1,1.2-2.5,2.2-4.2,2.7v0.1c1.1,0.1,2.1,0.5,3.1,1c0.9,0.5,1.7,1.1,2.3,1.7c0.6,0.7,1.1,1.6,1.5,2.5
				c0.4,1,0.5,2,0.5,3.1c0,1.7-0.4,3.3-1.1,4.4c-0.7,1.2-1.7,2.2-3,2.8c-1.2,0.7-2.6,1.2-4.1,1.6s-3,0.5-4.6,0.5h-13.8L119.9,53.4
				L119.9,53.4z M127.3,66.9h5.4c0.6,0,1.1-0.1,1.7-0.2c0.6-0.1,1.1-0.4,1.5-0.6c0.5-0.2,0.9-0.6,1.1-1.1c0.2-0.5,0.4-1.1,0.4-1.7
				c0-0.7-0.1-1.2-0.5-1.7c-0.2-0.5-0.7-0.9-1.1-1.1c-0.5-0.2-1-0.5-1.6-0.5c-0.6-0.1-1.2-0.1-1.7-0.1h-5v7.1H127.3z M127.3,80.8
				h6.6c0.6,0,1.1-0.1,1.7-0.2c0.6-0.1,1.1-0.4,1.6-0.6c0.5-0.4,0.9-0.7,1.1-1.2c0.2-0.5,0.5-1.1,0.5-1.8c0-0.7-0.2-1.5-0.6-2
				c-0.4-0.5-0.9-0.9-1.5-1.1c-0.6-0.2-1.2-0.4-2-0.5c-0.7-0.1-1.4-0.1-2-0.1h-5.7v7.6H127.3z"/>
			<path class="st0" d="M150.7,53.4h7.4v33.7h-7.4V53.4z"/>
			<path class="st0" d="M163.1,70.3c0-2.7,0.5-5.2,1.4-7.4c0.9-2.2,2.2-4.1,3.8-5.7c1.6-1.6,3.6-2.7,5.8-3.6
				c2.2-0.9,4.7-1.2,7.3-1.2c2.6,0,5,0.4,7.3,1.2c2.2,0.9,4.2,2,5.8,3.6c1.6,1.6,2.8,3.4,3.8,5.7c0.9,2.2,1.4,4.7,1.4,7.4
				c0,2.7-0.5,5.2-1.4,7.4c-0.9,2.2-2.2,4.1-3.8,5.7c-1.6,1.6-3.6,2.7-5.8,3.6c-2.2,0.9-4.7,1.2-7.3,1.2c-2.6,0-5-0.4-7.3-1.2
				c-2.2-0.9-4.2-2-5.8-3.6c-1.6-1.6-2.8-3.4-3.8-5.7C163.5,75.4,163.1,73,163.1,70.3z M170.9,70.3c0,1.6,0.2,3.1,0.7,4.3
				c0.5,1.4,1.2,2.5,2.1,3.4c0.9,1,2,1.7,3.3,2.2c1.2,0.5,2.7,0.9,4.3,0.9s3.1-0.2,4.3-0.9c1.2-0.5,2.3-1.4,3.3-2.2
				c0.9-1,1.6-2.1,2.1-3.4c0.5-1.4,0.7-2.8,0.7-4.3c0-1.6-0.2-3-0.7-4.3s-1.2-2.5-2.1-3.4c-0.9-1-2-1.7-3.3-2.2
				c-1.2-0.5-2.7-0.9-4.3-0.9s-3.1,0.2-4.3,0.9c-1.2,0.5-2.3,1.4-3.3,2.2c-0.9,1-1.6,2.1-2.1,3.4S170.9,68.7,170.9,70.3z"/>
			<path class="st0" d="M211.1,59.9h-9.6v-6.5h26.7v6.5h-9.6v27.2h-7.4V59.9H211.1z"/>
			<path class="st0" d="M232.3,53.4h22.9v6.9h-15.5v6.3h14.6v6.9h-14.6v6.9h16.4v6.9h-23.8V53.4z"/>
			<path class="st0" d="M284.1,62.1c-0.7-0.9-1.6-1.6-2.7-2.1s-2.3-0.7-3.7-0.7s-2.7,0.2-3.9,0.9c-1.2,0.5-2.2,1.4-3.1,2.2
				c-0.9,1-1.6,2.1-2.1,3.4c-0.5,1.4-0.7,2.8-0.7,4.3c0,1.6,0.2,3.1,0.7,4.3c0.5,1.4,1.1,2.5,2,3.4c0.9,1,1.8,1.7,3.1,2.2
				c1.1,0.5,2.5,0.9,3.7,0.9c1.5,0,2.8-0.4,4.1-1c1.2-0.6,2.1-1.5,3-2.7l6.2,4.7c-1.5,2-3.2,3.4-5.4,4.4c-2.2,1-4.4,1.5-6.8,1.5
				c-2.6,0-5-0.4-7.3-1.2c-2.2-0.9-4.2-2-5.8-3.6s-2.8-3.4-3.8-5.7c-1-2.2-1.4-4.7-1.4-7.4c0-2.7,0.5-5.2,1.4-7.4
				c0.9-2.2,2.2-4.1,3.8-5.7s3.6-2.7,5.8-3.6c2.2-0.9,4.7-1.2,7.3-1.2c1,0,2,0.1,3,0.2s2.1,0.5,3.1,0.9c1,0.4,2,0.9,2.8,1.5
				c0.9,0.6,1.7,1.4,2.5,2.3L284.1,62.1z"/>
			<path class="st0" d="M294.7,53.4h7.4V66h14.4V53.4h7.4v33.7h-7.4V72.6h-14.4v14.6h-7.4L294.7,53.4L294.7,53.4z"/>
		</g>
	</g>
	<g class="st1">
		<path class="st0" d="M162.6,41.7h-19v-3.4c1.5,0,2.4-0.2,3-0.6c0.6-0.4,1-1,1.1-1.7s0.2-1.9,0.2-3.7V21.9c0-2.1-0.4-3.8-0.9-4.9
			c-0.6-1.2-1.8-1.8-3.8-1.8c-2.6,0-4.5,1-5.7,2.9c-1.2,1.9-1.8,4.3-1.8,6.8v8.2c0,1.9,0.2,3.3,0.9,4c0.6,0.7,1.8,1.1,3.7,1.1v3.4
			h-19.4v-3.4c1.6,0,2.8-0.1,3.5-0.4c0.7-0.2,1.2-0.7,1.5-1.5c0.2-0.7,0.4-1.8,0.4-3.4V21.2c0-1.7-0.4-2.8-1-3.4
			c-0.6-0.5-2.1-0.7-4.4-0.7v-3.4l14.3-3.2c0.2,1.5,0.4,2.7,0.4,4c0,0.4,0,0.6,0,0.9c0,0.2,0,0.5,0,0.7c1.6-1.6,3.2-2.9,4.8-4
			c1.7-1.1,3.8-1.6,6.2-1.6c2.1,0,4,0.4,5.7,1.1c1.7,0.7,3,1.9,3.9,3.4c1,1.6,1.5,3.4,1.5,5.6v12.3c0,2.1,0.2,3.4,0.9,4.3
			c0.5,0.7,1.9,1.1,4.3,1.1v3.4H162.6z"/>
		<path class="st0" d="M195.7,25.5h-22.5c0,0.5,0.1,1.5,0.2,2.9c0.1,1.5,0.5,3,1,4.6c0.6,1.6,1.6,2.9,2.9,4c1.5,1.1,3.3,1.6,5.7,1.6
			c1.3,0,2.8-0.4,4.8-1c1.8-0.6,3.4-1.9,4.8-3.8l2.8,1.9c-2.9,4.6-7.4,6.9-13.8,6.9c-2.8,0-5.4-0.4-7.7-1.2
			c-2.3-0.9-4.3-1.9-5.8-3.4c-1.6-1.5-2.8-3.2-3.7-5.1s-1.2-4-1.2-6.3c0-2.9,0.7-5.7,2.2-8.2c1.5-2.6,3.5-4.5,6.1-6
			c2.7-1.5,5.7-2.2,9.1-2.2s6.2,0.7,8.5,2.2c2.3,1.5,4,3.3,5.1,5.6C195,20.5,195.7,22.9,195.7,25.5z M186.5,22.2
			c0-5.6-2.2-8.4-6.6-8.4c-2.1,0-3.8,0.7-4.9,2.3c-1.1,1.6-1.8,3.5-1.9,6.1H186.5z"/>
		<path class="st0" d="M232.2,41.7h-20.5v-3.4h1.3c1,0,1.8-0.1,2.4-0.2c0.6-0.1,1-0.6,1-1.2c0-0.4-0.5-1.2-1.7-2.3l-3.7-3.9
			l-4.6,3.9c-1.2,1-1.8,1.8-1.8,2.4s0.4,1,1,1.1s1.6,0.2,2.9,0.2v3.4h-14.3v-3.4c1.2-0.2,2.6-0.7,4-1.6c1.5-0.9,3.4-2.4,6-4.5l4.6-4
			l-8.9-9.5c-1.3-1.5-2.4-2.4-3-2.8s-1.6-0.6-2.8-0.7v-3.4h20.1v3.4c-1.2,0-2.2,0-2.7,0.1c-0.5,0.1-0.7,0.5-0.7,1
			c0,0.4,0.5,1.1,1.5,2.1l3.5,3.9l3.9-3.7c0.5-0.5,0.9-0.9,1.2-1.1c0.2-0.2,0.5-0.5,0.6-0.7c0.1-0.2,0.2-0.5,0.2-0.7
			c0-0.4-0.2-0.6-0.9-0.7c-0.6-0.2-1.5-0.2-2.7-0.2v-3.4h13.5V15c-1,0-2.2,0.4-3.4,1.1c-1.2,0.7-3.2,2.3-5.8,4.6l-4.4,3.9L228.7,36
			c1,1,2.1,1.8,3.5,2.3V41.7z"/>
		<path class="st0" d="M256.7,35.1c-1.3,2.8-2.8,4.8-4.6,6c-1.7,1.2-3.8,1.8-6.2,1.8c-2.9,0-5-0.6-6.3-1.7c-1.3-1.2-2.2-2.4-2.6-3.9
			c-0.4-1.5-0.5-3-0.5-4.9V15H231v-3.4c2.3,0,4.4-0.5,6.1-1.3c1.7-0.9,3-2.1,4-3.5c1-1.5,1.6-3,1.9-4.8h3v9.6h10.4V15h-10.4v17.5
			c0,2.2,0.1,3.7,0.4,4.6c0.2,1,1,1.5,2.1,1.5c1.2,0,2.2-0.5,2.9-1.3c0.7-1,1.5-2.1,2.2-3.4L256.7,35.1z"/>
	</g>
	<g>
		<path class="st0" d="M89.1,27v-4.6c0,0,0,0-0.1-0.1c-1.1-0.6-2.1-1.1-3.2-1.6c-10.5-5.3-21-10.5-31.5-15.6c-0.4-0.2-1-0.4-1.2-0.1
			c-1.1,0.7-2.1,1.6-3.2,2.5c12.6,9.1,24.9,18.1,37.3,27.2C88.1,32,88.7,29.6,89.1,27z"/>
		<path class="st0" d="M59.1,2.1c0,0.1,0,0.2,0,0.4c10,4.9,19.9,10,30.2,15V1.6H61.7C60.8,1.8,59.9,2,59.1,2.1z"/>
		<path class="st0" d="M3.1,38.9c6.3-6,13.9-7.9,22.3-7.4c4.6,0.2,8.7,1.6,12.9,3.1c0.2,0.1,0.6,0.2,1,0.2c0-0.1,0-0.2,0-0.2
			c-0.1-0.4-0.2-0.7-0.4-1.1c-2.8-7.9-2.7-15.8-0.2-23.6c1-3.2,2.5-5.9,4.4-8.2H2.4v37.8C2.7,39.3,2.8,39.1,3.1,38.9z"/>
		<path class="st0" d="M50.3,39.2c0.1,0.2,0.5,0.5,0.7,0.6c3.3,1.2,6.5,2.6,9.8,3.7c2.5,0.9,5,1.2,7.6,1.1
			C60.9,37,53.3,29.3,45.7,21.7c0,0.6-0.1,1.5,0,2.3C46.3,29.5,48.4,34.4,50.3,39.2z"/>
		<path class="st0" d="M75.3,43.9c2.1-0.7,4.2-1.4,6-2.3c1.4-0.7,2.5-2,3.7-3.1c-12.6-9.1-25-18.1-37.5-27.2c-0.4,1.2-0.6,2.3-1,3.4
			c-0.2,0.7,0,1.2,0.5,1.8c7.1,7.1,14.3,14.3,21.4,21.3c2,2,3.8,3.8,5.8,5.8C74.5,43.7,75.1,44,75.3,43.9z"/>
		<path class="st0" d="M32.7,87.4c0-0.1,0-0.2,0-0.4c-10-4.9-19.9-10-30.2-15v16h25.7C29.8,87.8,31.3,87.7,32.7,87.4z"/>
		<path class="st0" d="M79.3,52.1c-4.7,1.2-9.4,1.7-14.2,1.2c-4.4-0.4-8.6-1.7-12.7-3.4c-6.2-2.5-12.2-5-18.3-7.4
			c-3.9-1.5-8-2.5-12.3-2.2c-1.1,0.1-2.1,0.2-3.1,0.4C29,51,39.4,61.3,49.8,71.7c0.4-2.6,0.6-5.4,0.1-8.1c-0.6-2.7-1.4-5.4-2.1-8.1
			c0.4,0.1,0.9,0.2,1.2,0.4c2.7,1,5.4,1.8,8,2.8c0.4,0.1,0.9,0.5,1,0.9c2.6,8,1.1,21-7.1,28.6h38.4V46.8
			C86.3,49.4,82.9,51,79.3,52.1z"/>
		<path class="st0" d="M39.3,85.1c1.2-0.6,2.5-1.4,3.8-2.1C29.9,73.4,16.9,64,3.9,54.6c-0.1,0.1-0.1,0.2-0.2,0.2
			c-0.5,1.6-0.9,3.2-1.2,4.8V67c11.9,6,23.9,11.9,35.9,18C38.6,85.1,39,85.2,39.3,85.1z"/>
		<path class="st0" d="M14.1,42.9c-0.5-0.5-0.9-0.5-1.5-0.1c-3.2,1.7-5.4,4.3-7.1,7.6c13.5,9.8,27.1,19.7,40.6,29.5
			c0.5-0.9,1-1.6,1.5-2.3c0.4-0.5,0.2-1-0.2-1.5C36.4,65,25.2,53.9,14.1,42.9z"/>
	</g>
</g>
</svg>
