<?xml version="1.0" encoding="utf-8"?>
<!-- Generator: Adobe Illustrator 21.0.2, SVG Export Plug-In . SVG Version: 6.00 Build 0)  -->
<svg version="1.1" id="Layer_1" xmlns="http://www.w3.org/2000/svg" xmlns:xlink="http://www.w3.org/1999/xlink" x="0px" y="0px"
	 viewBox="0 0 315 77" style="enable-background:new 0 0 315 77;" xml:space="preserve">
<style type="text/css">
	.st0{fill:#FFFFFF;}
</style>
<g>
	<path class="st0" d="M99.2,32.5c1.4,0,2.7,0.2,3.8,0.7c1.1,0.5,2.1,1.1,2.9,1.9c0.8,0.8,1.4,1.7,1.9,2.8c0.4,1,0.6,2.2,0.6,3.4
		c0,1.9-0.4,3.5-1.2,4.8c-0.8,1.4-2,2.4-3.8,3.1v0.1c0.9,0.2,1.6,0.6,2.1,1.1c0.6,0.5,1,1.1,1.4,1.7c0.4,0.7,0.6,1.4,0.8,2.2
		c0.2,0.8,0.3,1.6,0.3,2.4c0,0.5,0.1,1.1,0.1,1.8s0.1,1.4,0.2,2.1c0.1,0.7,0.2,1.4,0.4,2c0.2,0.6,0.4,1.2,0.7,1.6h-6.9
		c-0.4-1-0.6-2.2-0.7-3.6c-0.1-1.4-0.2-2.7-0.4-4c-0.2-1.6-0.7-2.8-1.5-3.6s-2-1.1-3.7-1.1h-6.9V64h-6.9V32.5H99.2z M96.8,46.8
		c1.6,0,2.8-0.4,3.6-1.1c0.8-0.7,1.2-1.9,1.2-3.4s-0.4-2.6-1.2-3.3c-0.8-0.7-2-1-3.6-1h-7.6v8.9h7.6V46.8z"/>
	<path class="st0" d="M113.2,48.2c0.1-1.5,0.5-2.7,1.1-3.7s1.5-1.7,2.5-2.3s2.1-1,3.4-1.3c1.2-0.2,2.5-0.4,3.8-0.4
		c1.1,0,2.3,0.1,3.5,0.2c1.2,0.2,2.2,0.5,3.2,0.9c1,0.5,1.8,1.1,2.4,2c0.6,0.8,0.9,1.9,0.9,3.3v11.8c0,1,0.1,2,0.2,3
		c0.1,0.9,0.3,1.6,0.6,2.1h-6.3c-0.1-0.4-0.2-0.7-0.3-1.1c-0.1-0.4-0.1-0.7-0.2-1.1c-1,1-2.2,1.7-3.5,2.2c-1.4,0.4-2.7,0.6-4.1,0.6
		c-1.1,0-2.1-0.1-3-0.4c-0.9-0.3-1.8-0.7-2.5-1.2c-0.7-0.6-1.3-1.3-1.7-2.1c-0.4-0.9-0.6-1.9-0.6-3c0-1.3,0.2-2.4,0.7-3.2
		s1-1.5,1.8-2c0.7-0.5,1.5-0.9,2.5-1.1c0.9-0.2,1.9-0.4,2.8-0.6c0.9-0.1,1.9-0.3,2.8-0.4c0.9-0.1,1.7-0.2,2.4-0.4
		c0.7-0.2,1.3-0.4,1.7-0.8c0.4-0.3,0.6-0.8,0.6-1.5s-0.1-1.2-0.3-1.6c-0.2-0.4-0.5-0.7-0.9-0.9s-0.8-0.4-1.3-0.4
		c-0.5-0.1-1-0.1-1.6-0.1c-1.2,0-2.2,0.3-2.9,0.8s-1.1,1.4-1.2,2.6h-6.5V48.2z M127.6,52.8c-0.3,0.2-0.6,0.4-1,0.6
		c-0.4,0.1-0.8,0.2-1.3,0.3s-0.9,0.2-1.4,0.2c-0.5,0.1-1,0.1-1.5,0.2c-0.5,0.1-0.9,0.2-1.4,0.4c-0.5,0.1-0.9,0.3-1.2,0.6
		c-0.3,0.2-0.6,0.6-0.8,0.9c-0.2,0.4-0.3,0.9-0.3,1.5s0.1,1,0.3,1.4c0.2,0.4,0.5,0.7,0.8,0.9c0.4,0.2,0.8,0.4,1.2,0.5
		c0.5,0.1,1,0.1,1.5,0.1c1.2,0,2.2-0.2,2.9-0.6c0.7-0.4,1.2-0.9,1.5-1.5s0.5-1.2,0.6-1.7c0.1-0.6,0.1-1.1,0.1-1.4
		C127.6,55.2,127.6,52.8,127.6,52.8z"/>
	<path class="st0" d="M138.9,37.7v-5.2h6.3v5.2H138.9z M145.1,41.2V64h-6.3V41.2H145.1z"/>
	<path class="st0" d="M155.3,58.3c0.3,0.5,0.6,0.9,1.1,1.2c0.4,0.3,0.9,0.5,1.5,0.7c0.6,0.1,1.2,0.2,1.8,0.2c0.4,0,0.9-0.1,1.4-0.2
		c0.5-0.1,0.9-0.3,1.3-0.5c0.4-0.2,0.7-0.5,1-0.9s0.4-0.8,0.4-1.4c0-0.9-0.6-1.6-1.9-2.1c-1.2-0.5-3-0.9-5.2-1.4
		c-0.9-0.2-1.8-0.4-2.7-0.7s-1.6-0.6-2.3-1.1s-1.2-1-1.6-1.7c-0.4-0.7-0.6-1.5-0.6-2.5c0-1.5,0.3-2.7,0.9-3.6
		c0.6-0.9,1.3-1.7,2.3-2.2c0.9-0.5,2-0.9,3.2-1.1c1.2-0.2,2.4-0.3,3.6-0.3c1.2,0,2.4,0.1,3.6,0.4c1.2,0.2,2.2,0.6,3.1,1.2
		c0.9,0.6,1.7,1.3,2.3,2.2s1,2.1,1.1,3.5h-5.9c-0.1-1.2-0.5-2-1.4-2.4c-0.8-0.4-1.8-0.6-2.9-0.6c-0.4,0-0.7,0-1.1,0.1
		c-0.4,0-0.8,0.1-1.1,0.3c-0.3,0.1-0.6,0.4-0.9,0.6c-0.2,0.3-0.4,0.7-0.4,1.1c0,0.6,0.2,1,0.6,1.4c0.4,0.4,0.9,0.6,1.6,0.9
		c0.7,0.2,1.4,0.4,2.3,0.6c0.9,0.2,1.7,0.4,2.6,0.6c0.9,0.2,1.8,0.5,2.7,0.7c0.9,0.3,1.6,0.7,2.3,1.2s1.2,1.1,1.6,1.8
		c0.4,0.7,0.6,1.6,0.6,2.7c0,1.5-0.3,2.8-0.9,3.8c-0.6,1-1.4,1.8-2.4,2.4c-1,0.6-2.1,1.1-3.3,1.3s-2.5,0.4-3.8,0.4s-2.6-0.1-3.9-0.4
		c-1.3-0.3-2.4-0.7-3.4-1.3s-1.8-1.4-2.4-2.4c-0.6-1-1-2.3-1-3.8h5.9C154.9,57.3,155.1,57.8,155.3,58.3z"/>
	<path class="st0" d="M180.4,58.5c0.9,0.9,2.3,1.4,4.1,1.4c1.3,0,2.3-0.3,3.3-0.9c0.9-0.6,1.5-1.3,1.7-2h5.5
		c-0.9,2.7-2.2,4.7-4.1,5.9c-1.8,1.2-4,1.8-6.6,1.8c-1.8,0-3.4-0.3-4.8-0.9c-1.4-0.6-2.7-1.4-3.7-2.4c-1-1.1-1.8-2.3-2.3-3.8
		s-0.8-3.1-0.8-4.8s0.3-3.3,0.8-4.8c0.6-1.5,1.4-2.7,2.4-3.8s2.3-1.9,3.7-2.5s3-0.9,4.7-0.9c1.9,0,3.6,0.4,5.1,1.1
		c1.4,0.7,2.6,1.8,3.5,3c0.9,1.3,1.6,2.7,2,4.3s0.6,3.3,0.4,5.1h-16.4C179,56.2,179.5,57.6,180.4,58.5z M187.5,46.5
		c-0.7-0.8-1.9-1.2-3.4-1.2c-1,0-1.8,0.2-2.5,0.5s-1.2,0.8-1.6,1.3c-0.4,0.5-0.7,1-0.8,1.6c-0.2,0.6-0.3,1.1-0.3,1.5h10.2
		C188.8,48.6,188.2,47.4,187.5,46.5z"/>
	<path class="st0" d="M205.3,32.5V44h0.1c0.8-1.2,1.8-2,3.1-2.6c1.3-0.5,2.7-0.8,4.1-0.8c1.1,0,2.3,0.2,3.4,0.7
		c1.1,0.5,2.1,1.2,3,2.2s1.6,2.2,2.2,3.7c0.6,1.5,0.8,3.3,0.8,5.4c0,2.1-0.3,3.9-0.8,5.4c-0.6,1.5-1.3,2.8-2.2,3.7
		c-0.9,1-1.9,1.7-3,2.2s-2.2,0.7-3.4,0.7c-1.7,0-3.2-0.3-4.5-0.8c-1.3-0.5-2.3-1.4-3-2.7H205V64h-6V32.5H205.3z M215.4,49.9
		c-0.2-0.9-0.5-1.7-1-2.3c-0.4-0.7-1-1.2-1.7-1.6c-0.7-0.4-1.5-0.6-2.4-0.6s-1.7,0.2-2.4,0.6c-0.7,0.4-1.2,0.9-1.7,1.6
		c-0.4,0.7-0.8,1.5-1,2.3c-0.2,0.9-0.3,1.8-0.3,2.8c0,0.9,0.1,1.8,0.3,2.7s0.5,1.7,1,2.3c0.4,0.7,1,1.2,1.7,1.6
		c0.7,0.4,1.5,0.6,2.4,0.6s1.7-0.2,2.4-0.6c0.7-0.4,1.2-0.9,1.7-1.6c0.4-0.7,0.8-1.5,1-2.3c0.2-0.9,0.3-1.8,0.3-2.7
		C215.7,51.7,215.6,50.7,215.4,49.9z"/>
	<path class="st0" d="M226.1,47.7c0.6-1.5,1.4-2.7,2.4-3.8c1-1,2.3-1.9,3.7-2.4c1.4-0.6,3.1-0.9,4.8-0.9c1.8,0,3.4,0.3,4.9,0.9
		c1.5,0.6,2.7,1.4,3.7,2.4s1.8,2.3,2.4,3.8c0.6,1.5,0.8,3.1,0.8,5s-0.3,3.5-0.8,4.9c-0.6,1.5-1.4,2.7-2.4,3.8c-1,1-2.3,1.8-3.7,2.4
		c-1.4,0.6-3.1,0.8-4.9,0.8c-1.8,0-3.4-0.3-4.8-0.8s-2.7-1.4-3.7-2.4s-1.8-2.3-2.4-3.8c-0.6-1.5-0.8-3.1-0.8-4.9
		S225.5,49.2,226.1,47.7z M231.7,55.3c0.2,0.9,0.5,1.6,0.9,2.3s1,1.2,1.7,1.7c0.7,0.4,1.6,0.6,2.6,0.6c1.1,0,1.9-0.2,2.7-0.6
		c0.7-0.4,1.3-1,1.7-1.7s0.7-1.5,0.9-2.3c0.2-0.9,0.3-1.8,0.3-2.7s-0.1-1.8-0.3-2.7s-0.5-1.7-0.9-2.3c-0.4-0.7-1-1.2-1.7-1.7
		c-0.7-0.4-1.6-0.6-2.7-0.6c-1.1,0-1.9,0.2-2.6,0.6c-0.7,0.4-1.3,1-1.7,1.7s-0.7,1.5-0.9,2.3c-0.2,0.9-0.3,1.8-0.3,2.7
		C231.5,53.5,231.6,54.4,231.7,55.3z"/>
	<path class="st0" d="M252.1,47.7c0.6-1.5,1.4-2.7,2.4-3.8c1-1,2.3-1.9,3.7-2.4c1.4-0.6,3.1-0.9,4.8-0.9c1.8,0,3.4,0.3,4.9,0.9
		c1.5,0.6,2.7,1.4,3.7,2.4s1.8,2.3,2.4,3.8s0.8,3.1,0.8,5s-0.3,3.5-0.8,4.9c-0.6,1.5-1.4,2.7-2.4,3.8c-1,1-2.3,1.8-3.7,2.4
		c-1.5,0.6-3.1,0.8-4.9,0.8s-3.4-0.3-4.8-0.8s-2.7-1.4-3.7-2.4s-1.8-2.3-2.4-3.8c-0.6-1.5-0.8-3.1-0.8-4.9S251.5,49.2,252.1,47.7z
		 M257.7,55.3c0.2,0.9,0.5,1.6,0.9,2.3s1,1.2,1.7,1.7c0.7,0.4,1.6,0.6,2.6,0.6c1.1,0,1.9-0.2,2.7-0.6c0.7-0.4,1.3-1,1.7-1.7
		c0.4-0.7,0.7-1.5,0.9-2.3c0.2-0.9,0.3-1.8,0.3-2.7s-0.1-1.8-0.3-2.7c-0.2-0.9-0.5-1.7-0.9-2.3c-0.4-0.7-1-1.2-1.7-1.7
		c-0.7-0.4-1.6-0.6-2.7-0.6s-1.9,0.2-2.6,0.6c-0.7,0.4-1.3,1-1.7,1.7c-0.4,0.7-0.7,1.5-0.9,2.3c-0.2,0.9-0.3,1.8-0.3,2.7
		C257.5,53.5,257.6,54.4,257.7,55.3z"/>
	<path class="st0" d="M284.7,32.5v16.9l7.9-8.2h7.4l-8.6,8.4L301,64h-7.6l-6.3-10.2l-2.4,2.3V64h-6.3V32.5H284.7z"/>
	<g>
		<path class="st0" d="M307.6,35h-1.3v3.5h-0.5V35h-1.3v-0.4h3.1L307.6,35L307.6,35z"/>
		<path class="st0" d="M307.9,34.5h0.7l1.3,3.1l0,0l1.3-3.1h0.7v3.9h-0.5v-3.3l0,0l-1.4,3.3h-0.3l-1.4-3.3l0,0v3.3h-0.5L307.9,34.5
			L307.9,34.5z"/>
	</g>
	<g>
		<g>
			<path class="st0" d="M1,1.7v26.5v3.3h0.2c1.5,21,11.6,38.6,25.1,43.5l1,0.4l1.8,0.5l2.5-0.6c0.1,0,2.8-1.1,2.8-1.1
				c12.5-6,21.6-22.8,23-42.6h0.2V1.7H1z M31.2,71.9L30.9,72c-0.1,0-0.2,0.1-0.3,0.1l-1.4,0.5L27.5,72C14.7,67.3,5,49.6,4.4,28.2
				h49.9C53.7,49.6,44,67.3,31.2,71.9z M54.3,25.3h-50V5h50V25.3z"/>
			<polygon class="st0" points="24.2,20.4 29.3,15.6 34.5,20.4 39.5,20.4 29.6,11 29.3,10.8 29.3,10.8 29.3,10.8 29.1,11 19.1,20.4 
							"/>
		</g>
		<g>
			<path class="st0" d="M23.2,36H30v3.6h0.1c0.7-1.4,1.6-2.4,2.6-3.1c1-0.7,2.3-1,3.8-1c0.4,0,0.8,0,1.2,0s0.8,0.1,1.1,0.2V42
				c-0.5-0.2-1-0.3-1.4-0.3c-0.5-0.1-1-0.1-1.5-0.1c-1.3,0-2.3,0.2-3.1,0.6c-0.8,0.4-1.3,0.9-1.8,1.5c-0.4,0.7-0.7,1.4-0.8,2.4
				C30.1,47,30,48,30,49.1v9.3h-6.9V36H23.2z"/>
		</g>
	</g>
</g>
</svg>
