<?xml version="1.0" encoding="utf-8"?>
<!-- Generator: Adobe Illustrator 21.0.2, SVG Export Plug-In . SVG Version: 6.00 Build 0)  -->
<svg version="1.1" id="Layer_1" xmlns="http://www.w3.org/2000/svg" xmlns:xlink="http://www.w3.org/1999/xlink" x="0px" y="0px"
	 viewBox="0 0 325 90.4" style="enable-background:new 0 0 325 90.4;" xml:space="preserve">
<style type="text/css">
	.st0{fill:#FFFFFF;}
	.st1{opacity:0.5;}
	.st2{fill:#676767;}
	.st3{fill:#043B58;}
</style>
<g>
	<path class="st0" d="M103.8,37.8c1.4,0,2.7,0.2,3.8,0.7c1.1,0.5,2.1,1.1,2.9,1.9c0.8,0.8,1.4,1.7,1.9,2.8c0.4,1,0.6,2.2,0.6,3.4
		c0,1.9-0.4,3.5-1.2,4.8c-0.8,1.4-2,2.4-3.8,3.1v0.1c0.9,0.2,1.6,0.6,2.1,1.1c0.6,0.5,1,1.1,1.4,1.7c0.4,0.7,0.6,1.4,0.8,2.2
		c0.2,0.8,0.3,1.6,0.3,2.4c0,0.5,0.1,1.1,0.1,1.8c0,0.7,0.1,1.4,0.2,2.1c0.1,0.7,0.2,1.4,0.4,2c0.2,0.6,0.4,1.2,0.7,1.6H107
		c-0.4-1-0.6-2.2-0.7-3.6c-0.1-1.4-0.2-2.7-0.4-4c-0.2-1.6-0.7-2.8-1.5-3.6c-0.8-0.8-2-1.1-3.7-1.1h-6.9v12.3h-6.9V37.8H103.8z
		 M101.3,52c1.6,0,2.8-0.4,3.6-1.1c0.8-0.7,1.2-1.9,1.2-3.4c0-1.5-0.4-2.6-1.2-3.3c-0.8-0.7-2-1-3.6-1h-7.6V52H101.3z"/>
	<path class="st0" d="M117.7,53.5c0.1-1.5,0.5-2.7,1.1-3.7c0.6-1,1.5-1.7,2.5-2.3c1-0.6,2.1-1,3.4-1.3c1.2-0.2,2.5-0.4,3.8-0.4
		c1.1,0,2.3,0.1,3.5,0.2c1.2,0.2,2.2,0.5,3.2,0.9c1,0.5,1.8,1.1,2.4,2c0.6,0.8,0.9,1.9,0.9,3.3v11.8c0,1,0.1,2,0.2,3
		c0.1,0.9,0.3,1.6,0.6,2.1h-6.3c-0.1-0.4-0.2-0.7-0.3-1.1c-0.1-0.4-0.1-0.7-0.2-1.1c-1,1-2.2,1.7-3.5,2.2c-1.4,0.4-2.7,0.6-4.1,0.6
		c-1.1,0-2.1-0.1-3-0.4c-0.9-0.3-1.8-0.7-2.5-1.2c-0.7-0.6-1.3-1.3-1.7-2.1c-0.4-0.9-0.6-1.9-0.6-3c0-1.3,0.2-2.4,0.7-3.2
		c0.5-0.8,1-1.5,1.8-2c0.7-0.5,1.5-0.9,2.5-1.1c0.9-0.2,1.9-0.4,2.8-0.6c0.9-0.1,1.9-0.3,2.8-0.4c0.9-0.1,1.7-0.2,2.4-0.4
		c0.7-0.2,1.3-0.4,1.7-0.8c0.4-0.3,0.6-0.8,0.6-1.5c0-0.7-0.1-1.2-0.3-1.6c-0.2-0.4-0.5-0.7-0.9-0.9c-0.4-0.2-0.8-0.4-1.3-0.4
		c-0.5-0.1-1-0.1-1.6-0.1c-1.2,0-2.2,0.3-2.9,0.8c-0.7,0.5-1.1,1.4-1.2,2.6H117.7z M132.2,58.1c-0.3,0.2-0.6,0.4-1,0.6
		c-0.4,0.1-0.8,0.2-1.3,0.3c-0.5,0.1-0.9,0.2-1.4,0.2c-0.5,0.1-1,0.1-1.5,0.2c-0.5,0.1-0.9,0.2-1.4,0.4c-0.5,0.1-0.9,0.3-1.2,0.6
		c-0.3,0.2-0.6,0.6-0.8,0.9c-0.2,0.4-0.3,0.9-0.3,1.5c0,0.6,0.1,1,0.3,1.4c0.2,0.4,0.5,0.7,0.8,0.9c0.4,0.2,0.8,0.4,1.2,0.5
		c0.5,0.1,1,0.1,1.5,0.1c1.2,0,2.2-0.2,2.9-0.6c0.7-0.4,1.2-0.9,1.5-1.5c0.3-0.6,0.5-1.2,0.6-1.7c0.1-0.6,0.1-1.1,0.1-1.4V58.1z"/>
	<path class="st0" d="M143.4,43v-5.2h6.3V43H143.4z M149.7,46.5v22.8h-6.3V46.5H149.7z"/>
	<path class="st0" d="M159.9,63.6c0.3,0.5,0.6,0.9,1.1,1.2c0.4,0.3,0.9,0.5,1.5,0.7c0.6,0.1,1.2,0.2,1.8,0.2c0.4,0,0.9-0.1,1.4-0.2
		c0.5-0.1,0.9-0.3,1.3-0.5c0.4-0.2,0.7-0.5,1-0.9c0.3-0.4,0.4-0.8,0.4-1.4c0-0.9-0.6-1.6-1.9-2.1c-1.2-0.5-3-0.9-5.2-1.4
		c-0.9-0.2-1.8-0.4-2.7-0.7c-0.9-0.3-1.6-0.6-2.3-1.1c-0.7-0.5-1.2-1-1.6-1.7c-0.4-0.7-0.6-1.5-0.6-2.5c0-1.5,0.3-2.7,0.9-3.6
		c0.6-0.9,1.3-1.7,2.3-2.2c0.9-0.5,2-0.9,3.2-1.1c1.2-0.2,2.4-0.3,3.6-0.3c1.2,0,2.4,0.1,3.6,0.4c1.2,0.2,2.2,0.6,3.1,1.2
		c0.9,0.6,1.7,1.3,2.3,2.2c0.6,0.9,1,2.1,1.1,3.5h-5.9c-0.1-1.2-0.5-2-1.4-2.4c-0.8-0.4-1.8-0.6-2.9-0.6c-0.4,0-0.7,0-1.1,0.1
		c-0.4,0-0.8,0.1-1.1,0.3c-0.3,0.1-0.6,0.4-0.9,0.6c-0.2,0.3-0.4,0.7-0.4,1.1c0,0.6,0.2,1,0.6,1.4c0.4,0.4,0.9,0.6,1.6,0.9
		c0.7,0.2,1.4,0.4,2.3,0.6c0.9,0.2,1.7,0.4,2.6,0.6c0.9,0.2,1.8,0.5,2.7,0.7c0.9,0.3,1.6,0.7,2.3,1.2c0.7,0.5,1.2,1.1,1.6,1.8
		c0.4,0.7,0.6,1.6,0.6,2.7c0,1.5-0.3,2.8-0.9,3.8c-0.6,1-1.4,1.8-2.4,2.4c-1,0.6-2.1,1.1-3.3,1.3c-1.2,0.2-2.5,0.4-3.8,0.4
		c-1.3,0-2.6-0.1-3.9-0.4c-1.3-0.3-2.4-0.7-3.4-1.3c-1-0.6-1.8-1.4-2.4-2.4c-0.6-1-1-2.3-1-3.8h5.9
		C159.5,62.5,159.6,63.1,159.9,63.6z"/>
	<path class="st0" d="M185,63.8c0.9,0.9,2.3,1.4,4.1,1.4c1.3,0,2.3-0.3,3.3-0.9c0.9-0.6,1.5-1.3,1.7-2h5.5c-0.9,2.7-2.2,4.7-4.1,5.9
		c-1.8,1.2-4,1.8-6.6,1.8c-1.8,0-3.4-0.3-4.8-0.9c-1.4-0.6-2.7-1.4-3.7-2.4c-1-1.1-1.8-2.3-2.3-3.8c-0.5-1.5-0.8-3.1-0.8-4.8
		c0-1.7,0.3-3.3,0.8-4.8c0.6-1.5,1.4-2.7,2.4-3.8c1-1.1,2.3-1.9,3.7-2.5c1.4-0.6,3-0.9,4.7-0.9c1.9,0,3.6,0.4,5.1,1.1
		c1.4,0.7,2.6,1.8,3.5,3c0.9,1.3,1.6,2.7,2,4.3c0.4,1.6,0.6,3.3,0.4,5.1h-16.4C183.5,61.4,184,62.9,185,63.8z M192,51.8
		c-0.7-0.8-1.9-1.2-3.4-1.2c-1,0-1.8,0.2-2.5,0.5c-0.7,0.3-1.2,0.8-1.6,1.3c-0.4,0.5-0.7,1-0.8,1.6c-0.2,0.6-0.3,1.1-0.3,1.5h10.2
		C193.3,53.8,192.8,52.6,192,51.8z"/>
	<path class="st0" d="M209.8,37.8v11.5h0.1c0.8-1.2,1.8-2,3.1-2.6c1.3-0.5,2.7-0.8,4.1-0.8c1.1,0,2.3,0.2,3.4,0.7
		c1.1,0.5,2.1,1.2,3,2.2c0.9,1,1.6,2.2,2.2,3.7c0.6,1.5,0.8,3.3,0.8,5.4c0,2.1-0.3,3.9-0.8,5.4c-0.6,1.5-1.3,2.8-2.2,3.7
		c-0.9,1-1.9,1.7-3,2.2c-1.1,0.5-2.2,0.7-3.4,0.7c-1.7,0-3.2-0.3-4.5-0.8s-2.3-1.4-3-2.7h-0.1v2.9h-5.9V37.8H209.8z M219.9,55.1
		c-0.2-0.9-0.5-1.7-1-2.3c-0.4-0.7-1-1.2-1.7-1.6c-0.7-0.4-1.5-0.6-2.4-0.6c-0.9,0-1.7,0.2-2.4,0.6c-0.7,0.4-1.2,0.9-1.7,1.6
		c-0.4,0.7-0.8,1.5-1,2.3c-0.2,0.9-0.3,1.8-0.3,2.8c0,0.9,0.1,1.8,0.3,2.7c0.2,0.9,0.5,1.7,1,2.3c0.4,0.7,1,1.2,1.7,1.6
		c0.7,0.4,1.5,0.6,2.4,0.6c0.9,0,1.7-0.2,2.4-0.6c0.7-0.4,1.2-0.9,1.7-1.6c0.4-0.7,0.8-1.5,1-2.3c0.2-0.9,0.3-1.8,0.3-2.7
		C220.3,56.9,220.1,56,219.9,55.1z"/>
	<path class="st0" d="M230.6,52.9c0.6-1.5,1.4-2.7,2.4-3.8c1-1,2.3-1.9,3.7-2.4c1.4-0.6,3.1-0.9,4.8-0.9c1.8,0,3.4,0.3,4.9,0.9
		c1.5,0.6,2.7,1.4,3.7,2.4c1,1,1.8,2.3,2.4,3.8c0.6,1.5,0.8,3.1,0.8,5s-0.3,3.5-0.8,4.9c-0.6,1.5-1.4,2.7-2.4,3.8
		c-1,1-2.3,1.8-3.7,2.4s-3.1,0.8-4.9,0.8c-1.8,0-3.4-0.3-4.8-0.8c-1.4-0.6-2.7-1.4-3.7-2.4c-1-1-1.8-2.3-2.4-3.8
		c-0.6-1.5-0.8-3.1-0.8-4.9S230,54.4,230.6,52.9z M236.3,60.6c0.2,0.9,0.5,1.6,0.9,2.3c0.4,0.7,1,1.2,1.7,1.7
		c0.7,0.4,1.6,0.6,2.6,0.6c1.1,0,1.9-0.2,2.7-0.6c0.7-0.4,1.3-1,1.7-1.7c0.4-0.7,0.7-1.5,0.9-2.3c0.2-0.9,0.3-1.8,0.3-2.7
		c0-0.9-0.1-1.8-0.3-2.7c-0.2-0.9-0.5-1.7-0.9-2.3c-0.4-0.7-1-1.2-1.7-1.7c-0.7-0.4-1.6-0.6-2.7-0.6c-1.1,0-1.9,0.2-2.6,0.6
		c-0.7,0.4-1.3,1-1.7,1.7c-0.4,0.7-0.7,1.5-0.9,2.3c-0.2,0.9-0.3,1.8-0.3,2.7C236,58.8,236.1,59.7,236.3,60.6z"/>
	<path class="st0" d="M256.6,52.9c0.6-1.5,1.4-2.7,2.4-3.8c1-1,2.3-1.9,3.7-2.4c1.4-0.6,3.1-0.9,4.8-0.9c1.8,0,3.4,0.3,4.9,0.9
		c1.5,0.6,2.7,1.4,3.7,2.4c1,1,1.8,2.3,2.4,3.8c0.6,1.5,0.8,3.1,0.8,5s-0.3,3.5-0.8,4.9c-0.6,1.5-1.4,2.7-2.4,3.8
		c-1,1-2.3,1.8-3.7,2.4c-1.5,0.6-3.1,0.8-4.9,0.8c-1.8,0-3.4-0.3-4.8-0.8s-2.7-1.4-3.7-2.4c-1-1-1.8-2.3-2.4-3.8
		c-0.6-1.5-0.8-3.1-0.8-4.9S256,54.4,256.6,52.9z M262.3,60.6c0.2,0.9,0.5,1.6,0.9,2.3c0.4,0.7,1,1.2,1.7,1.7
		c0.7,0.4,1.6,0.6,2.6,0.6c1.1,0,1.9-0.2,2.7-0.6c0.7-0.4,1.3-1,1.7-1.7c0.4-0.7,0.7-1.5,0.9-2.3c0.2-0.9,0.3-1.8,0.3-2.7
		c0-0.9-0.1-1.8-0.3-2.7c-0.2-0.9-0.5-1.7-0.9-2.3c-0.4-0.7-1-1.2-1.7-1.7c-0.7-0.4-1.6-0.6-2.7-0.6c-1.1,0-1.9,0.2-2.6,0.6
		c-0.7,0.4-1.3,1-1.7,1.7c-0.4,0.7-0.7,1.5-0.9,2.3c-0.2,0.9-0.3,1.8-0.3,2.7C262,58.8,262.1,59.7,262.3,60.6z"/>
	<path class="st0" d="M289.3,37.8v16.9l7.9-8.2h7.4l-8.6,8.4l9.6,14.4H298l-6.3-10.2l-2.4,2.3v7.8H283V37.8H289.3z"/>
	<g>
		<path class="st0" d="M312.2,40.2h-1.3v3.5h-0.5v-3.5h-1.3v-0.4h3.1V40.2z"/>
		<path class="st0" d="M312.5,39.8h0.7l1.3,3.1h0l1.3-3.1h0.7v3.9h-0.5v-3.3h0l-1.4,3.3h-0.3l-1.4-3.3h0v3.3h-0.5V39.8z"/>
	</g>
	<g>
		<path class="st0" d="M5.6,7v26.5l0,3.3h0.2c1.5,21,11.6,38.6,25.1,43.5l1,0.4l1.8,0.5l2.5-0.6c0.1,0,2.8-1.1,2.8-1.1
			c12.5-6,21.6-22.8,23-42.6h0.2V7H5.6z"/>
		<g>
			<rect id="XMLID_5_" x="8.9" y="10.3" class="st2" width="50" height="20.3"/>
			<path class="st3" d="M58.8,33.5H8.9c0.6,21.4,10.3,39.1,23.2,43.8l1.7,0.6l1.4-0.5v0c0.1,0,0.2-0.1,0.3-0.1l0.3-0.1v0
				C48.6,72.5,58.2,54.9,58.8,33.5z"/>
			<polygon class="st0" points="28.8,25.6 33.9,20.9 39,25.6 44.1,25.6 34.1,16.3 33.9,16.1 33.9,16.1 33.9,16.1 33.6,16.3 
				23.7,25.6 			"/>
		</g>
		<g>
			<path class="st0" d="M27.7,41.3h6.9v3.6h0.1c0.7-1.4,1.6-2.4,2.6-3.1c1-0.7,2.3-1,3.8-1c0.4,0,0.8,0,1.2,0c0.4,0,0.8,0.1,1.1,0.2
				v6.3c-0.5-0.2-1-0.3-1.4-0.3c-0.5-0.1-1-0.1-1.5-0.1c-1.3,0-2.3,0.2-3.1,0.6c-0.8,0.4-1.3,0.9-1.8,1.5c-0.4,0.7-0.7,1.4-0.8,2.4
				c-0.1,0.9-0.2,1.9-0.2,3v9.3h-6.9V41.3z"/>
		</g>
	</g>
</g>
</svg>
